<?xml version="1.0" encoding="UTF-8"?><svg id="Capa_2" xmlns="http://www.w3.org/2000/svg" viewBox="0 0 259.75 548.85"><g id="Capa_21"><polygon points="131.49 282.92 117.32 223.21 77.88 248.06 103.07 209.94 45.36 196.82 103.08 183.38 76.94 142.67 116.68 168.5 130.52 111.42 144.38 168.68 182.28 143.65 158.09 182.75 214.5 196.96 156.77 209.46 156.56 208.49 210.12 196.89 156.52 183.38 179.04 146.99 143.75 170.3 130.52 115.67 117.32 170.11 80.29 146.04 104.69 184.03 49.82 196.81 104.7 209.29 81.27 244.74 117.97 221.61 131.43 278.34 143.06 222.95 144.04 223.15 131.49 282.92"/><rect y="196.37" width="259.75" height="1"/><rect x="123.56" y="167.46" width="1" height="30.86" transform="translate(-71.33 79.64) rotate(-28)"/><polygon points="133.69 198.17 103.49 184.21 103.91 183.3 128.91 194.86 78.63 145.24 79.33 144.53 133.69 198.17"/><path d="M129.5,199.08l14.46-29.81.9.44-11.76,24.23c47.38-48.69,47.68-48.79,47.83-48.84l.31.95-.16-.47.3.4c-.93.78-32.94,33.63-49.73,50.89l-2.16,2.22Z"/><polygon points="182.17 246.93 156.6 209.44 131.08 196.96 131.52 196.07 157.28 208.66 157.36 208.77 183 246.37 182.17 246.93"/><path d="M80.82,246.2l-.7-.72c17.22-16.63,49.99-48.33,50.77-49.27l.25-.42.4.28c.2.12.31.18.12.67l.05.03s-.05.06-.12.14c-.26.61-.86,1.72-2,3.88-1.29,2.43-3.02,5.66-4.75,8.9l-6.91,12.93-.88-.47c3.53-6.6,9.47-17.72,12.26-22.96-8.68,8.54-38.38,37.24-48.5,47.01Z"/><path d="M91.36,268.96c-30.71-13.89-50.55-44.63-50.55-78.32,0-47.37,38.54-85.91,85.91-85.91,12.18,0,23.95,2.5,34.97,7.42l-.41.91c-10.9-4.86-22.53-7.33-34.57-7.33-46.82,0-84.91,38.09-84.91,84.91,0,33.3,19.61,63.68,49.96,77.41l-.41.91Z"/><polygon points="156.82 115.06 156.48 114.12 161.13 112.46 159.14 107.95 160.05 107.55 162.48 113.04 156.82 115.06"/><path d="M133.32,268.66c-28.55,0-54.16-15.43-63.73-38.4l.92-.38c9.41,22.6,34.65,37.78,62.8,37.78,36.73,0,66.62-25.47,66.62-56.77h1c0,31.86-30.33,57.77-67.62,57.77Z"/><polygon points="75.17 231.42 74.78 232.34 70.25 230.4 68.64 235.07 67.7 234.74 69.65 229.06 75.17 231.42"/><path d="M68.9,179.11h-1c0-30.71,27.05-55.7,60.3-55.7,16.1,0,31.24,5.79,42.62,16.3l-.68.73c-11.2-10.34-26.1-16.04-41.95-16.04-32.7,0-59.3,24.54-59.3,54.7Z"/><path d="M198.69,267.82l-13.32-.1,1.57-.92c20.4-11.91,33.58-39.38,33.58-69.97s-13.19-58.08-33.6-69.98l.5-.86c20.71,12.08,34.09,39.89,34.09,70.85s-12.72,57.38-32.56,69.92l9.74.07v1Z"/><rect x="130.54" y="0" width="1" height="548.86" transform="translate(-1.19 .57) rotate(-.25)"/><rect x="-9.3" y="196.09" width="278.58" height="1" transform="translate(-73.68 78) rotate(-26.31)"/><path d="M186.03,249.32l-43.05-26.05-.06-.14-13.19-28.85,56.3,55.04ZM143.76,222.58l35.38,21.4-46.27-45.23,10.89,23.83Z"/></g></svg>