<?xml version="1.0" encoding="UTF-8"?>
<svg id="Capa_1" xmlns="http://www.w3.org/2000/svg" version="1.1" viewBox="0 0 1929.5 490">
  <!-- Generator: Adobe Illustrator 29.6.1, SVG Export Plug-In . SVG Version: 2.1.1 Build 9)  -->
  <defs>
    <style>
      .st0 {
        fill: #010101;
      }

      .st1 {
        fill: #e72286;
      }

      .st2 {
        fill: #1e1e1c;
      }
    </style>
  </defs>
  <g>
    <polygon class="st2" points="473.7 392.7 660.8 394.7 740.8 278.8 587.9 5 565.1 1.1 473.7 392.7"/>
    <polygon class="st1" points="311.7 388.1 311.7 363.7 459 410.1 747.8 434.4 723.4 488.9 449.8 478.5 311.7 388.1"/>
  </g>
  <path class="st2" d="M.2,272.8c51.5,49.1,110.3,90.1,172.9,123.8,30.9,16.6,62.9,32.3,96,44.1,66.6,23.6,139,33.4,209.3,36.8,39,1.9,78.7,2.5,117.6-2.3s75.3-14.6,111.3-27.9c150.2-55.5,270.7-165.3,411.6-238.3,75.6-39.2,155.7-64.3,241.1-68.9,88.8-4.8,175.5,11,262.7,25.3,50.6,8.3,101.3,14.2,152.7,13.8,23.5-.2,47.1-1.1,70.5-3.5,21.8-2.2,44.4-5.2,64.9-13.4,6.7-2.7,13.2-6,18.6-11,.6-.5-.3-1.4-.9-.9-14.6,13.3-37.3,17.3-56,20.4-24.5,4.1-49.4,5.8-74.2,6.6-44.7,1.4-88.7-.9-133-6.9-84-11.5-166.6-30.5-251.8-32.5-81.8-1.9-161.8,11.3-237.5,42.8-145.2,60.4-263.6,168.6-404.3,237.4-72.1,35.2-147.8,57.6-228.3,59.1-78.9,1.5-159.1-5.9-235.5-26.2-34-9-65.8-21.7-97.5-36.9-59.1-28.3-115.3-63.1-166.2-104.3-14.8-12-29.1-24.7-42.9-37.8-.6-.6-1.5.3-.9.9H.2Z"/>
  <g>
    <path class="st0" d="M1114.7,201.6l-2.6,1.4-12.8-7.2c-1.3-.7-3.3-2-3.6-2.2v.2c.1.2,1,1.6,1.7,3l5.9,10.9-2.4,1.3-9.4-17.5,2.7-1.4,12.9,7.3c2,1.2,3,1.9,3.5,2.2v-.2c-.1-.4-.9-1.6-1.7-3.1l-6-11,2.4-1.3,9.4,17.5Z"/>
    <path class="st0" d="M1128.5,189l-7.4,3.7.6,5.2-2.5,1.3-2.3-21,2.4-1.2,15.6,14.3-2.5,1.3-3.8-3.6ZM1126.7,187.4l-5.6-5.2c-.4-.4-1-1-1.5-1.6h0c.2.8.3,1.6.4,2.2l.9,7.6,5.9-3Z"/>
    <path class="st0" d="M1141.3,182.2c.4.4.9,1,1.5,1.6h0c-.1-.8-.2-1.5-.3-2.2l-1.4-15.2,2.6-1.2,1.8,21.1-2.4,1.1-15-14.8,2.6-1.2,10.7,10.8Z"/>
    <path class="st0" d="M1152.2,164l2.4,5.6,7.8-3.4.9,2.1-7.8,3.4,2.7,6.2,8.7-3.8.9,2.1-11.2,4.9-7.9-18.1,11.2-4.9.9,2.1-8.7,3.8Z"/>
    <path class="st0" d="M1187.9,168.1l-1.5.6c-.2-.2-.8-1.2-1.4-2.4-.3,2.3-1.9,4-4.4,5-4.8,1.9-9.6-.5-11.9-6.1-2.3-5.7-.3-10.7,4.5-12.7,5.2-2.1,8.4.8,9.3,3.1l-2.2,1.3c-.7-1.8-2.9-3.6-6.2-2.3-3.1,1.3-4.7,4.9-2.9,9.4,1.7,4.3,5.1,6.2,8.8,4.8,3.3-1.3,4.2-4.1,3.2-6.5l-.2-.4-5.9,2.4-.8-2.1,8-3.2,3.6,9.1Z"/>
    <path class="st0" d="M1202.3,157.6l-7.8,2.8v5.3c0,0-2.7,1-2.7,1l.3-21.2,2.6-.9,13.7,16.1-2.7,1-3.4-4ZM1200.8,155.8l-4.9-5.8c-.4-.5-.8-1.1-1.3-1.7h0c0,.8.1,1.6.1,2.2v7.6c0,0,6.2-2.2,6.2-2.2Z"/>
    <path class="st0" d="M1232.3,153.1l-2.6.8-3.6-11.7c-.2-.8-.6-2.3-.7-2.5h-.1c0,.3,0,1.8,0,2.4l-1.7,13.7-1.6.5-9.5-10.5c-.7-.8-1.2-1.6-1.2-1.8h-.1c0,.2.6,1.7.9,2.5l3.7,11.6-2.6.8-5.9-18.9,2.8-.9,9.6,10.8c.6.7,1.6,1.9,1.9,2.3h0c0-.5.2-2.1.3-3l1.8-14.3,2.7-.8,5.9,18.9Z"/>
    <path class="st0" d="M1253.5,137.2c1.6,6-1.2,10.7-6.4,12.1-5.2,1.4-10-1.4-11.6-7.4s1.2-10.7,6.4-12.1c5.2-1.4,10,1.4,11.6,7.4ZM1250.9,137.9c-1.2-4.6-4.6-6.7-8.3-5.7-3.7,1-5.6,4.6-4.3,9.1,1.2,4.6,4.6,6.7,8.3,5.7,3.7-1,5.6-4.6,4.3-9.1Z"/>
    <path class="st0" d="M1263.8,127.2c-2.3.5-3.5,1.9-3.1,3.7.9,4.1,11-.2,12.6,7,.7,3.1-1.6,5.7-5.8,6.6-3.5.7-6.2,0-7.6-.8l1.2-2.4c.9.5,3,1.5,5.9.9,2.7-.6,4-2,3.7-3.7-1.1-5.2-11.2-.4-12.6-7-.7-3.2,1.5-5.9,5.3-6.7,5.3-1.1,7.1,2,7.8,3.3l-2.4,1.1c-.4-1-1.9-2.7-4.9-2.1Z"/>
    <path class="st0" d="M1302.1,124.7l-2.5.8c-.3-1.9-2-4.4-5.6-3.9-3.4.5-5.7,3.7-4.9,8.5.8,5.4,4.4,7.1,7.8,6.5,2.5-.4,4.2-2.2,5-3.8l1.9,1.4c-.5.9-2.2,4.1-6.6,4.8-5.5.9-9.9-2.2-10.8-8.5-.9-6,2.1-10.5,7.3-11.3,5.5-.9,8,2.9,8.4,5.4Z"/>
    <path class="st0" d="M1326.2,125.1c.7,6.1-2.7,10.5-8.1,11.1-5.4.6-9.7-2.8-10.4-8.9-.7-6.1,2.7-10.5,8.1-11.1,5.4-.6,9.7,2.8,10.4,8.9ZM1323.4,125.5c-.5-4.7-3.6-7.3-7.4-6.9-3.8.4-6.2,3.7-5.6,8.4.5,4.7,3.6,7.3,7.4,6.9,3.8-.4,6.2-3.7,5.6-8.4Z"/>
    <path class="st0" d="M1348.9,133.2l-3,.2-8.8-11.8c-.9-1.2-2.2-3.2-2.4-3.5h-.1c.1.4.3,2,.5,3.6l1,12.4-2.7.2-1.5-19.7,3-.2,8.8,11.9c1.4,1.9,2,3,2.3,3.4h.2c0-.5-.3-2-.5-3.6l-1-12.4,2.7-.2,1.5,19.7Z"/>
    <path class="st0" d="M1378.6,118.8c.1,4.3-2.5,6.8-7.2,7h-3.8c0,.1.2,6.5.2,6.5h-2.7c0,0-.6-19.7-.6-19.7l6.2-.2c4.9-.2,7.8,2.2,8,6.4ZM1375.8,118.9c0-2.8-2-4.3-5.3-4.2h-3.3c0,.1.3,8.9.3,8.9h3.4c3.3-.2,5-1.9,5-4.7Z"/>
    <path class="st0" d="M1399.7,131.8s-.7.2-1.6.2c-5.6,0-3.9-7.8-9.1-7.8h-1.6s0,7.6,0,7.6h-2.7s0-19.8,0-19.8h6c4.6,0,7.3,1.8,7.3,6.1,0,2.8-1.8,4.7-4.4,5.6,2.6,1.4,2.6,6.1,5.4,6.1.4,0,.6,0,.6,0l.2,2.1ZM1390.2,122.1c2.8,0,4.9-1.4,4.9-3.9,0-2.5-1.6-3.8-4.6-3.8h-3.1s0,7.8,0,7.8h2.8Z"/>
    <path class="st0" d="M1407.8,114.4v6.1c-.1,0,8.4.2,8.4.2v2.3s-8.5-.2-8.5-.2v6.8c-.1,0,9.4.2,9.4.2v2.3s-12.3-.3-12.3-.3l.4-19.8,12.3.3v2.3s-9.6-.2-9.6-.2Z"/>
    <path class="st0" d="M1438.5,133h-1.6c0-.4-.2-1.5-.3-2.9-1.2,2-3.4,2.8-6.1,2.7-5.2-.2-8.5-4.4-8.3-10.5.3-6.1,4.2-9.9,9.4-9.7,5.5.3,7.3,4.2,7.2,6.7l-2.5.3c0-1.9-1.2-4.5-4.7-4.6-3.4-.2-6.3,2.5-6.5,7.4-.2,4.6,2,7.8,6,8,3.6.2,5.5-2,5.6-4.6v-.4s-6.3-.3-6.3-.3v-2.3c.1,0,8.7.4,8.7.4l-.4,9.8Z"/>
    <path class="st0" d="M1461.8,114.8l-.9,12.1c-.3,4.7-3.7,7.6-8.4,7.2-4.7-.3-7.6-3.7-7.3-8.4l.9-12.1,2.7.2-.9,12.1c-.2,3.5,1.7,5.6,4.8,5.8,3,.2,5.3-1.6,5.5-5l.9-12.1,2.7.2Z"/>
    <path class="st0" d="M1482.9,136.6l-3-.3-6.6-13.1c-.7-1.3-1.6-3.5-1.7-3.8h-.2c0,.4,0,2-.2,3.6l-1.1,12.4-2.7-.3,1.9-19.7,3,.3,6.6,13.2c1,2.1,1.5,3.3,1.7,3.8h.2c0-.5,0-2,.2-3.6l1.1-12.4,2.7.3-1.9,19.7Z"/>
    <path class="st0" d="M1496.3,120.5l-6.3-.7.3-2.3,15.3,1.7-.3,2.3-6.3-.7-2,17.4-2.7-.3,2-17.4Z"/>
    <path class="st0" d="M1517.9,135.8l-8.2-1.1-2.5,4.6-2.8-.4,9.9-18.7,2.7.4,4.8,20.6-2.8-.4-1.2-5.1ZM1517.4,133.5l-1.7-7.5c-.1-.6-.2-1.3-.4-2.1h0c-.3.7-.6,1.4-.9,2l-3.5,6.8,6.6.9Z"/>
    <path class="st0" d="M1535,125.4c-2.3-.3-3.9.6-4.2,2.4-.6,4.2,10.4,3.6,9.4,10.9-.4,3.1-3.5,4.8-7.7,4.2-3.5-.5-5.8-2.2-6.9-3.3l2-1.9c.7.8,2.3,2.4,5.2,2.8,2.7.4,4.5-.5,4.7-2.2.7-5.2-10.4-4.2-9.5-10.9.5-3.2,3.4-5,7.3-4.5,5.3.8,6,4.3,6.2,5.7l-2.6.3c0-1.1-.8-3.2-3.9-3.6Z"/>
  </g>
  <g>
    <path class="st2" d="M740.9,137.9h-6.9v-20.3c0-1.6.2-4.2.3-4.5h-.3c-.1.4-.8,2.6-1.2,3.6l-9.4,21.5h-3.9l-9.6-21.7c-.7-1.5-1.1-3.2-1.2-3.4h-.2c0,.4.2,3,.2,4.6v20.3c.1,0-6.8,0-6.8,0v-36.7h7.6l9.6,21c.9,2.1,2.1,5.2,2.4,6.1h.2c.2-.9,1.5-3.9,2.4-6.1l9.5-21h7.3v36.7Z"/>
    <path class="st2" d="M769.4,129.7h-14l-2.8,8.2h-7.2l13.3-36.7h7.4l13.2,36.7h-7.1l-2.8-8.2ZM767.5,124.3l-4-11.7c-.4-1.1-.8-2.7-1.1-4.1h-.2c-.3,1.4-.7,2.9-1.1,4.1l-3.9,11.6h10.3Z"/>
    <path class="st2" d="M814.3,137.9h-6.9l-12.7-19.3c-1.5-2.3-3.4-5.6-4.2-6.8l-.3.2c.2.8.3,3.7.3,6.6v19.4c.1,0-6.8,0-6.8,0v-36.7h6.6l13.1,20c2,3.1,3.5,5.8,4,6.9l.3-.2c-.1-.9-.3-3.7-.3-6.8v-20c0,0,6.8,0,6.8,0v36.7Z"/>
    <path class="st2" d="M822.5,101.2h6.9v36.7h-6.9v-36.7Z"/>
    <path class="st2" d="M844.7,107v9.9h14v5.7h-14v15.3h-7v-36.7h23.3v5.8h-16.3Z"/>
    <path class="st2" d="M866.5,101.2h6.9v36.7h-6.9v-36.7Z"/>
    <path class="st2" d="M888.7,107v9.3h14.7v5.6h-14.7v10.2h16.8v5.8h-23.8v-36.7h23.8v5.8h-16.8Z"/>
    <path class="st2" d="M924.1,106.7c-3.7,0-5.9,1.7-5.9,4.5,0,7.1,19.4,3.2,19.4,16.9s-4.8,10.1-13.7,10.1-12.3-3.1-14.4-4.9l4.2-5.1c1.6,1.4,5.3,4.2,10.4,4.2s6.5-1.6,6.5-4.2c0-8.1-19.4-3.9-19.4-16.7s5.1-10.7,12.8-10.7,12.6,5.9,13.3,9.4l-6.3,1.6c-.2-2-2.2-5.1-6.8-5.1Z"/>
    <path class="st2" d="M950.9,107h-11.3v-5.8h29.7v5.8h-11.4v30.9h-7v-30.9Z"/>
    <path class="st2" d="M1006,119.5c0,11.4-7.3,18.7-17.7,18.7s-17.6-7.2-17.6-18.7,7.3-18.7,17.6-18.7,17.7,7.2,17.7,18.7ZM998.9,119.5c0-7.9-4.4-12.6-10.6-12.6s-10.6,4.7-10.6,12.6,4.4,12.6,10.6,12.6,10.6-4.8,10.6-12.6Z"/>
  </g>
</svg>