<?xml version="1.0" encoding="UTF-8"?>
<svg id="Capa_1" xmlns="http://www.w3.org/2000/svg" xmlns:xlink="http://www.w3.org/1999/xlink" version="1.1" viewBox="0 0 480 472.7">
  <!-- Generator: Adobe Illustrator 29.3.1, SVG Export Plug-In . SVG Version: 2.1.0 Build 151)  -->
  <defs>
    <style>
      .st0 {
        fill: #171717;
      }
    </style>
  </defs>
  <path class="st0" d="M52.3,149c-2.3-10.7-1-27,7.1-35.5,14.5-15.1,39.7-14.7,58.5-11.2.3,0,.6,0,.8-.3,2.7-4.2,5.1-8.5,7.3-13,2-4.1,3.8-7.1,5.3-8.9,6.4-7.7,16.3-13.5,25.4-17.4.3,0,.4-.4.3-.7-2.8-7.7,1.9-13.7,8.6-16.8,18.4-8.4,35.6-19.7,53.5-31.3,6.7-4.4,11.5-6.9,14.3-7.6,14-3.5,26.1,9.1,32.1,20.9,5.7,11.4,8.9,22.7,12,35,.1.3.2.4.5.5l26.9,8.1c.2,0,.5,0,.7-.2,4.8-5.8,12.2-10.5,19.8-9.3,1.8.3,4.9,1.5,9.5,3.6,16.2,7.7,31.4,13.5,48.2,17.4,15.3,3.6,30.8,6.4,46,10.3,13.1,3.3,33.1,9.3,39.7,22.5,7,14,0,32.5-7.2,45.1-1.3,2.3-2.2,4.4-2.5,6.3-1.2,6.9-.2,15.1,1.1,22.1,1.7,8.9,3.3,16.1,5,21.5,2.2,7.4,1.8,14.2-1.3,20.6-7.2,14.7-22.1,20.6-37.8,18.1-.3-.1-.5.1-.5.4-1.2,29.8,12.3,56.6,42.6,65.2,3.8,1.1,5.8,3.5,5.9,7.3.2,4.5-3.3,6.6-7.5,7.8-41,12-93.5,22.5-133.2.4-.3-.2-.7-.1-.8.2-.1.1-.1.3-.1.5.2,1,.8,2,1.7,2.8,10.5,9.4,22.8,15.2,36.5,18.4,15.7,3.7,31.5,4.9,47.5,3.8,4.8-.3,8.9-.2,10.1,4.8,1.6,6.5-10.4,21.8-14.6,26.6-11,12.7-23.6,23.5-37.8,32.5-21.2,13.4-42.1,25.1-64.8,33.1-13,4.6-25.6,8.2-37.8,11-42.1,9.5-82.8-1.7-109.4-36.5-12.1-15.9-18.5-34.5-23.8-53.5-.1-.3-.3-.4-.6-.3-16.3,5.4-42.9,5.8-48.8-15.3-1.9-7-2.1-16-1.1-21.7,2.1-12.7,5.1-25.3,8.9-37.7,0-.3,0-.5-.3-.6-33.6-8-63.8-30.3-78.6-61.3-6.2-13.4-10.5-28-12.7-43.7-1.6-11.5-2-20.8,4.5-30.4,3.5-5.1,8.1-8.7,13.9-10.8,1.4-.5,2.9-1,4.3-1.4,6.4-2,15.6-1.5,22.3-1,.4,0,.5-.1.4-.4ZM139.3,92.5c-1.9,4.1-4.5,8.9-7.9,14.6-.1.3-.1.5.1.7l6.7,5.8c.2.2.5.2.7,0,8.6-3.6,17.1-3.5,25.6.5.3.2.6,0,.8-.2.3-.5.5-1.4.9-1.8,7-10.3,16.5-14.8,28.6-15.9,3.3-.3,6.7-.6,10-.8,15.8-1.1,31.4-.2,47,2.7,10.2,1.9,17.8,5.2,24.2,13.4.2.2.5.4.8.5l39.7,11.5c.4,0,.6,0,.6-.4.5-8.2,11.1-9,13-1.5,3.7,14.3,8.1,23.5,15,38.3,6.7,14.2,15.5,28,30.9,33,4.2,1.4,7-.8,9.2-4,2.3-3.4,4.1-7.3,5.5-11.7,3.1-9.4,5.3-19,6.6-28.7,1.9-13.2,1.5-25.5-9.8-34.5-1.6-1.3-5-3.2-10.1-5.8-17.6-8.9-34.1-19.9-50.6-31.8-6.5-4.6-11.4,3.4-14.5,7.8-1.5,2.1-5.1,2.2-7.6,1.2-21.1-7.6-43.1-13.3-65.3-16.6-26.5-3.9-56.2-3.4-81.1,7.9-6.9,3-15.7,8.3-19,15.7ZM248.1,138.4c7.1,3.2,16.3,2.6,20-5,3.9-8-3.4-16.9-10.4-20.1-1.8-.8-5.6-1.7-11.3-2.7s-12.9-1.4-19-2.4c-2.5-.4-7.3-.2-6.8,3.6.4,2.9,1.6,4.3,3.6,7.1,6.3,8.6,14.2,15.1,23.9,19.5ZM113.7,138.1c2,1.2,6.1,2.9,7.9,2.8,6.8-.4,10.6-7.1,9-13.3-1.7-6.9-6.1-11.1-13-12.6-5-1.1-11.3-1.8-18.8-2-3,0-5.8,1.2-4.2,4.7,4.2,8.5,10.6,15.3,19.1,20.4ZM206.2,313.2c1.5,3.8-.7,10-2.5,13.5-8.6,17-23.7,29.5-40.3,38.4-.3.2-.4.4-.3.7,6.8,27,20.6,58.9,48.2,70.2,5.2,2.1,11.7,3.7,19.4,4.7,16.9,2.2,33.7,1.1,50.5-3.3,2.3-.6,4.8-1.7,7.2-3.2.9-.6,1.2-1.7.7-2.7-.1-.1-.1-.2-.2-.2-1.9-2.2-5.9-4-8.4-5.4-14.2-8-25.9-21.5-34.5-35.3-3.3-5.2-7.6-13.2-7.3-19.6,0-1,.9-1.8,1.9-1.8s2,.4,3,1c14.9,10.4,33.2,16.5,51.1,18.8,4.8.6,20.2,1.7,21.9-4.9.1-.3,0-.6-.1-.9-7.4-11.7-14.6-23.5-21.8-35.4-8.5-14-14.2-29.7-15.5-45.8-.4-5.3-1.7-21.6,8.9-17.1,11.3,4.8,23.7,12.4,33.9,16,10.6,3.8,21.6,5.9,32.9,6.2,3.5.1,9.2-2,4.8-6.1-25.7-23.9-31.5-62.3-33.1-95.4-.4-7.2-.2-14.6.3-22.1.6-7.9.8-13.3.7-16.1-.3-8.5-.8-18.9-4.6-26.7-.1-.3-.4-.5-.7-.6l-38.7-10.9c-.6-.2-.9.1-.8.7.3,2.1.2,4.4-.2,6.8-1.6,10.3-5,20-10.3,28.9-6.8,11.4-17.1,18.6-30.9,21.7-7.7,1.7-13.6,2.3-18,1.6-4.6-.7-9.8-1-14-2-24.5-5.7-40.5-20.9-47.8-45.5-1.2-4-1.5-8.1-1-12.3,0-.3-.1-.6-.4-.8-5.4-3.1-10.9-3.3-16.5-.7-.3,0-.5.4-.5.8.5,8.4-3.4,16.8-8,23.9-.2.3-.1.5.3.5,4.7.2,9.3.4,14,.6,6.7.2,8.9,9.4,3,12.5-1.3.7-3.2.9-5.7.8-8.4-.3-16.7-.6-25.1-.8-11-.3-23.2-1.2-34.8-1.5-.3,0-.5.1-.6.5-3.4,18-16.1,31-30.8,40.8-.3.2-.4.6-.2.9,19.6,35.8,55.3,58.8,97.2,53.1,26.1-3.5,48.8-13.9,62.2-37.6,2-3.5,2.8-8.8,6.5-11,7.7-4.7,10,6.4,9,11.4-3.4,17.6-10,33.9-19.7,48.9-9.5,14.8-20.3,28.5-32.3,41.4-14,14.9-48,46.1-69.6,26.7-.3-.2-.4-.2-.4.2-.9,11.6,3.9,19.5,16.7,18.8,5.5-.3,11.1-1.4,16.7-3.2,23-7.6,42.5-20.4,58.5-38.5,1.3-1.5,2.7-2.9,4.1-4.2.5-.5,1.3-.4,1.8.1.1.2.2.4.2.5ZM27.1,219.6c4.2,12,10.4,22.7,18.6,32.3,2,2.3,3.8,3.7,5.4,4.3,6.5,2.2,11.9-6.1,13.9-11.5,0-.3,0-.5-.2-.8-9.5-9.3-17.8-20.1-22.6-32.6,0-.3-.3-.5-.7-.6-8.8-2.8-15.6-8.2-20.2-16.2-.1-.1-.2-.2-.4-.1-.1.1-.1.2-.1.3,1.2,8.9,4,18.2,6.3,24.9ZM128.1,310.8c-.5-1.4-.5-2.8-.2-4.1,3-11,4.7-21.8,5-32.5,0-.3-.2-.5-.5-.6l-12.3-1.4c-.3,0-.5.1-.5.4.6,14.2-1.2,27.8-4.8,41.6-1.1,4.3-1.5,7.4-1.2,9.2,2.1,11.8,17,10.3,24.3,5.2,18.4-13,29.1-35.7,34-57.8,0-.2,0-.3-.3-.3l-23.4,3.4c-.4.1-.6.3-.7.7-2,12.2-5.8,25.4-13.9,35-1.4,1.6-3,2.2-4.9,1.9-.2-.1-.5-.3-.6-.7Z"/>
</svg>