<?xml version="1.0" encoding="UTF-8"?>
<svg id="Capa_2" data-name="Capa 2" xmlns="http://www.w3.org/2000/svg" viewBox="0 0 245.28 91.13">
  <defs>
    <style>
      .cls-1 {
        fill: #1d1d1b;
      }
    </style>
  </defs>
  <g id="Capa_27" data-name="Capa 27">
    <g>
      <g>
        <g>
          <g>
            <path class="cls-1" d="M48.83,84.76c-.58.27-1.06.4-1.61.4-1.29,0-1.89-.91-1.89-2.27s.65-2.19,2-2.19c.66,0,1.08.16,1.41.38l-.36.63c-.24-.16-.61-.27-1.05-.27-.77,0-1.12.59-1.12,1.44,0,1.01.37,1.57,1.1,1.57.28,0,.55-.06.75-.15v-.79h-.59l-.04-.62h1.41v1.88Z"/>
            <path class="cls-1" d="M52.32,83.53c0,1.06-.54,1.63-1.47,1.63s-1.47-.56-1.47-1.63c0-.92.51-1.62,1.47-1.62s1.47.7,1.47,1.62M51.46,83.53c0-.75-.22-1.01-.61-1.01s-.61.27-.61,1.01.2,1.02.61,1.02.61-.27.61-1.02"/>
            <path class="cls-1" d="M53.71,82.29c.14-.19.48-.38.83-.38.73,0,1.26.52,1.26,1.62s-.64,1.63-1.36,1.63c-.45,0-.71-.17-.91-.44l-.15.38h-.45v-4.4h.83v1.09l-.06.5ZM53.77,84.23c.13.17.34.32.57.32.36,0,.63-.27.63-1.02s-.24-1.01-.62-1.01c-.21,0-.44.11-.58.25v1.46Z"/>
            <path class="cls-1" d="M56.69,85.1v-2.51l-.36-.08v-.54h1.18v3.12h-.83ZM56.67,80.7h.84v.76h-.84v-.76Z"/>
            <path class="cls-1" d="M58.99,83.76c0,.5.28.77.8.77.32,0,.64-.13.91-.27l.16.59c-.26.14-.68.31-1.17.31-.98,0-1.54-.6-1.54-1.63,0-.96.46-1.62,1.46-1.62.94,0,1.32.7,1.32,1.49v.36h-1.94ZM59.57,82.52c-.41,0-.58.38-.58.75h1.14c0-.4-.13-.75-.56-.75"/>
            <path class="cls-1" d="M63.34,82.67c-.1-.03-.24-.05-.39-.05-.22,0-.42.1-.56.21v2.27h-.83v-3.12h.58c.03.15.06.28.09.42h.03c.09-.22.38-.48.74-.48.17,0,.29.03.36.05,0,.24,0,.47-.02.71"/>
            <path class="cls-1" d="M65.78,85.1v-1.85c0-.47-.18-.69-.56-.69-.22,0-.4.1-.55.19v2.36h-.83v-3.12h.57l.13.36c.18-.21.52-.42.99-.42.79,0,1.1.47,1.1,1.26v1.93h-.85Z"/>
            <path class="cls-1" d="M70.11,83.53c0,1.06-.54,1.63-1.47,1.63s-1.47-.56-1.47-1.63c0-.92.51-1.62,1.47-1.62s1.47.7,1.47,1.62M69.26,83.53c0-.75-.22-1.01-.61-1.01s-.6.27-.6,1.01.2,1.02.6,1.02.61-.27.61-1.02"/>
            <path class="cls-1" d="M74.17,82.22c-.05-.18-.08-.34-.08-.57v-.94h.83v4.4h-.68l-.1-.34c-.13.19-.43.41-.83.41-.71,0-1.28-.51-1.28-1.63,0-1.03.59-1.63,1.35-1.63.34,0,.61.11.78.31M74.09,82.69c-.13-.08-.32-.15-.57-.15-.39,0-.64.27-.64,1s.24,1.03.63,1.03c.21,0,.42-.1.58-.27v-1.6Z"/>
            <path class="cls-1" d="M76.39,83.76c0,.5.28.77.8.77.33,0,.64-.13.91-.27l.16.59c-.26.14-.68.31-1.17.31-.98,0-1.54-.6-1.54-1.63,0-.96.46-1.62,1.46-1.62.94,0,1.32.7,1.32,1.49v.36h-1.94ZM76.97,82.52c-.41,0-.58.38-.58.75h1.14c0-.4-.13-.75-.56-.75"/>
            <path class="cls-1" d="M82.12,85.16c-1.21,0-1.85-.82-1.85-2.25,0-1.32.64-2.21,1.85-2.21.59,0,1.12.13,1.47.36l-.32.66c-.22-.16-.61-.29-1.06-.29-.71,0-1.07.53-1.07,1.47,0,.99.36,1.52,1.06,1.52.42,0,.84-.18,1.14-.39l.27.67c-.43.29-.91.46-1.48.46"/>
            <path class="cls-1" d="M84.18,85.1v-4.4h.83v1.15c0,.22-.07.43-.08.48.18-.22.44-.43.88-.43.9,0,1.15.47,1.15,1.26v1.93h-.85v-1.85c0-.08-.01-.15-.05-.19-.03-.35-.2-.5-.52-.5-.22,0-.4.1-.55.19v2.36h-.83Z"/>
            <path class="cls-1" d="M87.9,85.1v-2.51l-.36-.08v-.54h1.19v3.12h-.83ZM87.87,80.7h.84v.76h-.84v-.76Z"/>
            <path class="cls-1" d="M89.49,84.27v-3.57h.82v3.52c0,.26.16.3.5.3v.59s-.24.05-.46.05c-.64,0-.87-.34-.87-.89"/>
            <path class="cls-1" d="M92.08,83.76c0,.5.28.77.8.77.33,0,.64-.13.91-.27l.16.59c-.26.14-.67.31-1.17.31-.98,0-1.54-.6-1.54-1.63,0-.96.46-1.62,1.46-1.62.94,0,1.32.7,1.32,1.49v.36h-1.94ZM92.66,82.52c-.41,0-.58.38-.58.75h1.14c0-.4-.13-.75-.56-.75"/>
            <path class="cls-1" d="M98.36,0H0v89.58s0,1.55,0,1.55h99.91V1.55s0-1.55,0-1.55h-1.55ZM1.55,1.55h38.88v88.03s-38.88,0-38.88,0V1.55ZM98.36,89.58h-56.37V1.55s56.37,0,56.37,0v88.03Z"/>
          </g>
          <g>
            <path class="cls-1" d="M22.21,13.62c.09-.07.27-.23.12-.53-.07-.14-.26-.15-.18-.17.99-.23,1.53-1.68,1.5-2.24.51.47,1.66.61,2.49-.1.54-.52.8-1.88-.12-2.56-.47-.35-1.3-.38-1.82.03-.16-.28-.45-.48-.76-.48,0-.1.01-.75-.38-1.18-.5-.54-1.9-.58-2.4.01-1-.25-2.31.21-2.24,1.78-.71-.28-1.11-.28-1.48-.25-.35.03-.82.35-.98.56-.07.1-.16.23-.22.35-.11.23-.2.52-.17.85.05.56.33,1.03.73,1.25.56.31,1.27.27,1.52.22.19-.04.4-.11.62-.34.06-.07.11-.17.21-.17,0,.14-.05.9.79,1.25,0,.04.02.07.02.12.27,1.04.96.91.98.98-.31.19-.18.46-.11.6.47-.14.82-.17.93-.17s.46.02.93.17Z"/>
            <g>
              <polygon class="cls-1" points="21.17 14.67 20.54 16.74 18.3 16.74 18.31 16.75 20.12 18.04 19.43 20.09 21.17 18.77 22.91 20.09 22.22 18.04 24.03 16.74 24.03 16.74 21.8 16.74 21.17 14.67"/>
              <path class="cls-1" d="M24.57,16.75c0-1.04.7-1.84.71-1.85.08-.09.08-.17.08-.22-.01-.1-.09-.16-.1-.16-.2-.14-.65-.41-.65-.41l-.04-.03h-.04s-.09.03-.15.08c-.12.1-.36.27-.76.27-.07,0-.14,0-.22-.02-.21-.03-.57-.21-.57-.21-.12-.06-.26-.12-.32-.15h-.03c-.58-.25-1.07-.27-1.21-.27s-.63.02-1.21.26h-.03s-.08.05-.15.08l-.35.17c-.12.05-.27.11-.39.13-.08.01-.15.02-.22.02-.4,0-.64-.18-.76-.27-.06-.05-.1-.08-.15-.08h-.04s-.02.02-.02.02c0,0-.46.28-.65.42-.03.01-.1.08-.12.17,0,.05,0,.14.08.22.03.03.71.83.71,1.87.02.12.07.75-.46,1.67-.02.05-.61,1.12.03,2.06,0,0,.48.89,1.89.89.11,0,1.15.02,1.51.68.02.03.18.29.25.42l.08.16.08-.16c.07-.13.23-.39.26-.43.35-.66,1.39-.68,1.5-.68,1.39,0,1.88-.87,1.88-.87.66-.97.04-2.07.04-2.08-.53-.92-.48-1.55-.46-1.68ZM24.03,16.74l-1.81,1.3.69,2.05-1.74-1.32-1.74,1.32.69-2.05-1.81-1.3h0s2.24,0,2.24,0l.63-2.08.63,2.08h2.24,0Z"/>
              <g>
                <path class="cls-1" d="M15.1,26.75c.99,1.01,2.42.45,2.42.45.23-.03.35-.74.41-1.28-.86-.11-1.69-.26-2.49-.47-.27.66-.34,1.3-.34,1.3Z"/>
                <path class="cls-1" d="M14.84,22.46s-.06-.06-.11-.07c-.13-.02-.21.08-.36.05-.13-.03-1.14-.8-1.21-.85-.22-.15-.57-.35-.73-.57-.11-.15-.02-.34-.04-.53-.01-.14-.18-.46-.45-.55-.06.32-.49,1.46-1.86,1.74-.19.74.11,2.17.27,2.35.13.02.25.09.35.17.01-.28.09-.47.09-.47.38-.78,1.28-.54,1.28-.54.31.1.38.37.38.37.12.62-.39.67-.39.67-.37.02-.38-.28-.38-.28-.05-.29.36-.3.36-.3-.35-.61-1.43.39-.72,1.26.07.09.14.03.14.03,2.14-1.06,2.49-1.51,2.49-1.51.46-.4.8-.66,1.06-.83-.1-.07-.17-.15-.17-.15Z"/>
                <path class="cls-1" d="M24.98,13.9s.08.06.13.1c-.05-.04-.09-.07-.13-.1Z"/>
                <path class="cls-1" d="M25.67,14.44c-.07-.05-.15-.11-.23-.18.08.06.16.12.23.18h0Z"/>
                <path class="cls-1" d="M25.18,14.06c.07.06.14.11.21.17-.07-.06-.15-.11-.21-.17Z"/>
                <path class="cls-1" d="M14.68,26.38c.07-.08.16-.46.16-.46.05-.21.13-.39.2-.56-.23-.07-.46-.15-.68-.22.02.7.33,1.24.33,1.24Z"/>
                <path class="cls-1" d="M24.79,25.92c.06.54.18,1.25.41,1.28,0,0,1.43.56,2.42-.45,0,0-.07-.63-.34-1.3-.8.2-1.63.36-2.49.47Z"/>
                <path class="cls-1" d="M27.88,25.92s.09.38.16.46c0,0,.3-.54.32-1.24-.23.07-.45.15-.68.22.07.18.15.35.2.56Z"/>
                <path class="cls-1" d="M17.21,23.96c-.46,0-.82.19-1.11.46.54.12,1.17.24,1.87.34-.12-.8-.76-.79-.76-.79Z"/>
                <path class="cls-1" d="M26.98,24.32c.43-.11.82-.21,1.12-.31-.06-.12-.13-.24-.22-.36,0,0-1.21-1.47-3.39-.65-.05.01.1.37.7.5.08.02,1.02.08,1.8.82Z"/>
                <path class="cls-1" d="M25.5,23.96s-.64,0-.76.79c.7-.1,1.33-.21,1.87-.34-.28-.27-.65-.45-1.11-.46Z"/>
                <path class="cls-1" d="M19.38,23.45c-.16-.21-.38-.22-.38-.22-.32,0-.38.73-.47,1.6.67.08,1.41.12,2.2.14-.34-.69-1.07-1.14-1.35-1.52Z"/>
                <path class="cls-1" d="M14.83,23.65c-.09.12-.16.24-.22.36.3.1.69.2,1.12.31.78-.74,1.72-.8,1.8-.82.6-.13.74-.48.7-.5-2.18-.83-3.4.65-3.4.65Z"/>
                <path class="cls-1" d="M23.71,23.23s-.23,0-.38.22c-.27.38-1.01.83-1.35,1.52.79-.02,1.53-.07,2.2-.14-.09-.87-.16-1.6-.47-1.6Z"/>
                <path class="cls-1" d="M36.7,25.37c-.23-.28-.83-.14-.83-.14.32-.96-.57-1.22-.57-1.22-.32-.08-.53-.02-.66.07,0,0,0,0,0,0,0,0,0,0,0,0-.02.02-.04.03-.06.05-.08.08-.13.2-.13.32,0,.25.21.46.46.46.1,0,.19-.03.27-.08.09-.07.16-.16.18-.27.13.08.17.22.17.22.26.82-.66,1.12-.66,1.12-2.04.61-3.29-.44-3.29-.44l.36-.19c.12-.05.24-.07.32-.07,0,.02,0,.04,0,.06,0,.22.18.4.41.4s.4-.18.4-.4c0-.17-.08-.25-.08-.25-.24-.36-1.06-.12-1.06-.12.27-.68.03-1.16.03-1.16-.38-.78-1.28-.54-1.28-.54-.31.1-.38.37-.38.37-.12.62.39.67.39.67.37.02.37-.28.37-.28.05-.29-.36-.3-.36-.3.34-.61,1.43.39.72,1.26-.07.09-.14.03-.14.03-1.27-.63-1.9-1.04-2.21-1.27-.03-.35-.33-.52-.27-.61.05-.02.23.07.33-.08.04-.05.12-.6.19-.99,1.12.51,2.08.36,2.28.3.1-.04.18-.11.18-.26.02-.43-1.09-2.95-1.12-3.84.52.26.85-.55.94-.8.7.32.95,6.86,1.49,7.08.27.11.38-.33.4-.42.87-2.91.9-5.75.84-6.7-.09-1.49-.21-2.82-.57-4.05-.22-.76-.65-2.3-1.64-2.51-.47-.1-.82.34-.81.73,0,.34.24.5.14.83-.12.22-.25.45-.31.7-.06.24.16.34.09.6-.32-.05-.47.23-.97.1.32-.15.33-1.07-.07-1.23-.06-.02-.13-.03-.14-.09,0,0,.13-.14.19-.27.23-.47.23-.88.05-1.19.16.01.33-.29.36-.53h0s0-.01,0-.02h0c0-.06,0-.28.09-.47.03-.06,0-.14-.06-.17-.06-.03-.13,0-.16.06-.1.21-.33.09-.23-.12.03-.07,0-.14-.06-.17-.05-.03-.13,0-.16.06-.09.2-.32.09-.23-.11.03-.06,0-.14-.05-.16-.05-.03-.13,0-.16.06-.1.2-.33.09-.23-.11.03-.07,0-.14-.06-.17-.06-.02-.13,0-.16.06-.1.22-.18.31-.28.39-.22.04-.16.29-.14.46-.41-.09-.72.22-.74.51h-.05c-.34,0-.67.18-.64.5.01.18.22.4.3.4.04-.01-.02-.19.16-.2.16,0,.4.13.43.28.04.17-.11.6.45.66,0,0,0,.09-.01.18-.2-.01-.25-.02-.45,0-.35.06-.83.25-.95.6-.02.06-.03.18-.02.26,0,.07.07.16.06.25,0,.04-.08.13-.11.16-.15.15-.42.3-.66.31-.27.01-.52-.16-.63-.3-.35-.48.1-1.3.1-1.6-.02-.82-1.05-.33-1.46-.12-.49.26-.87.67-1.2,1.07-.18.22-.38.5-.48.74-.02.04-.06.05-.1.05.21.09.58.23.87.24,0,0,.57.08.98-.26,0,0,.06-.05.14-.05.06,0,.11.03.16.07,0,0,.06.05.12.1.04.03.08.06.13.1.02.02.05.04.07.06.07.05.14.11.21.17.01.01.03.02.04.03.08.06.16.12.23.18h0c.08.06.16.12.21.15h0s.03.03.04.06c0,.03-.01.07-.04.1,0,0-.04.05-.11.13-.14.17-.37.51-.54.93.19.33.52.73.98.74.37,0,.52-.18.58-.42,0,0,.03.03.03.03.04-.04.25,1.06.52,1.36-.25.12-.64.51-.43,1.6-.21-.17-.59-.46-.77-.65-.11-.23-.32-.76-.94-.81.09.27.22.58.42.92,0,0,.38.7.26,1.49.26-.26.22-.99.22-.99,0,0,.05-.02.06-.02.05,0,.31.5.76.61.58,1,1.24,1.63,1.87,2.03-.01.24.02.82-.14.82-.5.11-.96-.23-1.4-.2-.04-.02-.08-.04-.08-.04-1.89-.91-4.38,1.04-4.8,1.42-.22.2-.47-.07-.47-.07-.15-.19-.34-.27-.54-.25-.19-.02-.39.06-.54.25,0,0-.25.27-.47.07-.39-.36-2.65-2.11-4.5-1.51,0-.1-.25-.15-.32-.18-.15-.04-.27-.16-.37-.2-.2-.1-.53-.04-.76-.07-.09-.01-.21-.06-.29-.11-.3-.18-.63-.4-.82-.67-.03-.04-.1-.14-.12-.16-.09-.11-.14-.2-.21-.39-.1-.36.06-.76.11-1.12.04-.27.03-.29.05-.58,1.17-.4,1.65-1.28,1.92-1.75.03-.04.1-.19.1-.19.05,0,.1.01.16.01.47,0,.78-.26,1.3-.2,0,.03.07.24.4.38,0,.34.03.61.16.87.03.05.06.08.09.12.22-.54.28-.96.28-1.21-.02-.02-.03-.05-.04-.1-.11-.57-.38-.73-.63-.87-.12-.07-.26-.09-.38-.17-.18-.13-.38-.26-.5-.49,0,0,.06-.06.12-.14.33-.34.49-.85.61-1.4.25-.34.95-.21,1.21-.16.07,0,.18.03.24.08.07.05.09.17.2.21.11.05.23.01.37,0,.05.06.08.13.11.2,0,0,.04.06.11.14.33,0,.76-.18.94-.27-.02-.01-.04-.03-.05-.04-.15-.19-.37-.39-.57-.42-.26-.04-.31-.27-.56-.32-.06-.02-.28-.05-.36-.02-.55.07-.94-.14-1.45-.17-.49-.03-.5.3-.68.57-.07.1-.14.22-.22.3-.13.13-.29.13-.45.26l-.08-.2c-.05-.17-.11-.34-.22-.51-.27-.42-.57-.74-1.16-.87-.11-.05-.13-.05-.2-.11-.1-.07-.03-.16,0-.17.17-.1.46-.06.65-.15.47-.22.3-.62.12-.65-.24-.04-.66-.16-.75-.21-.11-.07-.31-.43-.5-.52-.21-.06-.13-.39-.33-.47-.08-.01-.2.03-.34.09,0-.07-.06-.45-.27-.58-.16-.09-.22.05-.21.14,0,.08.23.19.27.55-.04.02-.07.05-.11.07-.03-.15-.1-.38-.25-.47-.16-.09-.21.05-.21.14,0,.08.2.18.26.48-.05.04-.09.08-.13.12-.32-.09-.4-.3-.48-.32-.09-.02-.23.03-.16.19.08.17.31.26.46.3-.03.03-.06.07-.09.1-.37-.07-.46-.31-.54-.33-.09-.02-.24.03-.16.19.11.23.52.32.56.33-.06.1-.1.19-.08.25-.28-.03-.79.12-.69.46.09.07.43-.21.74-.05.2.32.53.33.6.39.11.09.13.25.18.4.09.27.28.49.44.74.17.27.36.54.54.78.02.06.04.13.03.23-.21.33-.83.72-1.09.96-.26.24-2.71,2.11-3.02,2.92-.07.18-.11.42-.1.66-.15.08-.48.21-.58.06-.19-.26.18-.46.1-.72-.04-.1-.18-.16-.27-.1-.61.44-.3,1.21.09,1.39.42.18.49-.28.81-.1.08.04.86.74.72,1.29,0,.03-.04.11-.05.13-.17.21-.45.37-.65.57-.4.26.38,1.87.32,2.69-.05.31.26.28.45.77-.19,0-.38.05-.48.2,0,0-.08.08-.08.25,0,.22.18.4.4.4s.4-.18.4-.4c0-.02,0-.04,0-.06.09,0,.2.02.32.07l.36.19s-1.25,1.05-3.29.44c0,0-.92-.29-.67-1.12,0,0,.05-.14.17-.22.02.11.09.21.18.27.08.05.17.08.27.08.25,0,.46-.21.46-.46,0-.12-.05-.24-.13-.32-.02-.02-.04-.03-.06-.05,0,0,0,0,0,0,0,0,0,0,0,0-.14-.1-.35-.15-.67-.07,0,0-.89.26-.57,1.22,0,0-.6-.14-.83.14,0,0-.08.09-.07.23h0c0,.07.02.13.06.21.06.09.17.15.29.15.11,0,.21-.05.27-.13,0,0,0,0,0,0,.02-.03.1-.07.21.04,1.35,1.41,3.56.83,4.78-.12,0,0,.68-.68,1.43-1.1.29.13.61.22.91.33-.02.44.07,1.07.56,1.8,0,0-.34.64-.93.29,0,0-.43-.33-.06-.73,0,0,.24-.2.35.05-.13,0-.23.11-.23.24s.1.24.24.24.23-.1.24-.22c.01-.1.02-.34-.19-.52,0,0-.19-.2-.54-.15-.51.08-.8,1.15.21,1.6,0,0,.8.36,1.21-.23,0,0,0-.09.15.06.84.82,2.73.58,3.47.02,0,0,.19-.12.4-.22,0,.31.27.57.59.57s.59-.27.59-.59c0-.29-.21-.53-.48-.58-.01,0-.39-.11-.93.22,0,0-.58.36-.54.31.19-.3.31-.72.4-1.16.82.09,1.66.15,2.54.17-.01.25-.05.56-.14.8,0,0-.31.13-.32.34,0,0-.03.16.24.38,0,0,.2.22.26.39,0,0,.02.24.34.24.02,0,.04,0,.06,0,.02,0,.04,0,.06,0,.33,0,.34-.24.34-.24.06-.17.26-.39.26-.39.27-.22.24-.38.24-.38,0-.22-.32-.34-.32-.34-.1-.24-.13-.55-.14-.8.87-.02,1.72-.08,2.54-.17.08.44.2.85.4,1.16.03.06-.54-.31-.54-.31-.55-.33-.92-.22-.94-.22-.27.05-.48.29-.48.58,0,.32.26.59.59.59s.58-.26.59-.57c.21.1.4.22.4.22.75.56,2.63.79,3.47-.02.15-.15.15-.06.15-.06.41.59,1.21.23,1.21.23,1.01-.44.72-1.52.21-1.6-.35-.06-.54.15-.54.15-.21.18-.2.42-.19.52,0,.12.11.22.23.22s.24-.1.24-.24-.1-.23-.23-.24c.11-.26.35-.05.35-.05.37.4-.07.73-.07.73-.58.35-.93-.29-.93-.29.49-.73.58-1.36.56-1.79.31-.11.62-.2.91-.33.75.42,1.43,1.1,1.43,1.1,1.22.94,3.43,1.53,4.78.12.11-.11.18-.07.21-.04,0,0,0,0,0,0,.06.08.16.13.27.13.12,0,.22-.06.29-.15.04-.07.06-.14.06-.2h0c0-.15-.07-.24-.07-.24ZM11.46,24.94s-.07.06-.14-.03c-.71-.87.38-1.87.72-1.26,0,0-.41.01-.36.3,0,0,0,.3.38.28,0,0,.51-.05.39-.67,0,0-.07-.28-.38-.37,0,0-.9-.24-1.28.54,0,0-.08.19-.09.47-.1-.08-.22-.15-.35-.17-.17-.18-.46-1.61-.27-2.35,1.37-.29,1.8-1.42,1.86-1.74.28.09.44.41.45.55.02.19-.06.38.04.53.16.22.52.43.73.57.07.05,1.08.83,1.21.85.14.03.23-.08.36-.05.04,0,.08.04.11.07,0,0,.07.07.17.15-.26.17-.61.43-1.06.83,0,0-.35.45-2.49,1.51ZM14.83,25.92s-.09.38-.16.46c0,0-.3-.54-.33-1.24.23.07.45.15.68.22-.07.18-.15.35-.2.56ZM17.52,27.2s-1.43.56-2.42-.45c0,0,.07-.64.34-1.3.8.2,1.63.36,2.49.47-.06.55-.18,1.25-.41,1.28ZM16.1,24.41c.28-.27.65-.45,1.11-.46,0,0,.64,0,.76.79-.7-.1-1.33-.21-1.87-.34ZM17.53,23.51c-.08.02-1.02.08-1.8.82-.43-.11-.82-.22-1.12-.31.06-.12.13-.24.22-.36,0,0,1.22-1.47,3.4-.65.04.01-.1.37-.7.5ZM18.53,24.83c.09-.87.16-1.6.47-1.6,0,0,.23,0,.38.22.27.38,1.01.83,1.35,1.52-.79-.02-1.53-.07-2.2-.14ZM21.98,24.97c.34-.69,1.07-1.14,1.35-1.52.15-.21.38-.22.38-.22.32,0,.38.73.47,1.6-.67.08-1.41.12-2.2.14ZM24.48,23.01c2.18-.83,3.39.65,3.39.65.09.12.16.24.22.36-.3.1-.69.2-1.12.31-.78-.74-1.72-.8-1.8-.82-.6-.13-.74-.48-.7-.5ZM25.5,23.96c.46,0,.83.19,1.11.46-.54.12-1.17.24-1.87.34.12-.8.76-.79.76-.79ZM25.19,27.2c-.23-.03-.35-.74-.41-1.28.86-.11,1.69-.26,2.49-.47.27.66.34,1.3.34,1.3-.99,1.01-2.42.45-2.42.45ZM28.04,26.38c-.07-.08-.16-.46-.16-.46-.05-.21-.13-.39-.2-.56.23-.06.46-.14.68-.22-.02.7-.32,1.24-.32,1.24Z"/>
              </g>
            </g>
          </g>
        </g>
        <g>
          <path class="cls-1" d="M50.39,11.53l-.11-4.6h-.03c-.1.58-.19,1-.27,1.32l-.77,3.29h-1.56l-.74-3.29c-.07-.32-.17-.73-.27-1.32h-.03l-.07,4.6h-.97l.21-5.45h1.82s.6,2.74.91,4.5h.02c.36-1.75,1.07-4.5,1.07-4.5h1.78l.21,5.45h-1.19Z"/>
          <path class="cls-1" d="M52.82,11.53v-3.2l-.46-.1v-.66h1.51v3.96h-1.05ZM52.79,5.96h1.07v.96h-1.07v-.96Z"/>
          <path class="cls-1" d="M57.28,11.53v-2.35c0-.6-.23-.88-.71-.88-.27,0-.51.12-.69.24v2.99h-1.06v-3.96h.73l.16.45c.23-.27.66-.53,1.25-.53,1,0,1.4.59,1.4,1.59v2.45h-1.07Z"/>
          <path class="cls-1" d="M59.54,11.53v-3.2l-.46-.1v-.66h1.51v3.96h-1.05ZM59.51,5.96h1.07v.96h-1.07v-.96Z"/>
          <path class="cls-1" d="M62.46,8.62c0,.61,1.71.43,1.71,1.72,0,.72-.53,1.28-1.56,1.28-.48,0-.92-.14-1.19-.29l.22-.73c.19.13.57.27.94.27s.58-.19.58-.44c0-.71-1.69-.48-1.69-1.82,0-.58.44-1.11,1.51-1.11.41,0,.84.08,1.11.19l-.15.77c-.27-.12-.61-.2-.95-.2s-.54.14-.54.36Z"/>
          <path class="cls-1" d="M66.47,11.61c-.7,0-1.16-.33-1.16-1.32v-1.96h-.59v-.75h.59v-.69l1.04-.34v1.03h1.06v.75h-1.06v1.94c0,.27.14.45.42.45.22,0,.44-.06.61-.15l.16.77c-.23.14-.65.27-1.07.27Z"/>
          <path class="cls-1" d="M68.91,9.84c0,.63.36.98,1.02.98.4,0,.82-.15,1.16-.33l.2.74c-.33.18-.87.39-1.49.39-1.22,0-1.95-.76-1.95-2.07,0-1.22.59-2.05,1.86-2.05,1.19,0,1.66.89,1.66,1.88v.46h-2.46ZM69.66,8.27c-.52,0-.74.48-.74.94h1.45c0-.51-.15-.94-.7-.94Z"/>
          <path class="cls-1" d="M74.42,8.46c-.13-.04-.31-.06-.49-.06-.28,0-.53.12-.71.27v2.87h-1.05v-3.96h.73l.11.53h.02c.12-.28.48-.61.94-.61.21,0,.37.03.46.06l-.02.9Z"/>
          <path class="cls-1" d="M75.38,11.53v-3.2l-.46-.1v-.66h1.51v3.96h-1.05ZM75.35,5.96h1.07v.96h-1.07v-.96Z"/>
          <path class="cls-1" d="M80.94,9.55c0,1.35-.68,2.07-1.86,2.07s-1.86-.71-1.86-2.07c0-1.16.65-2.05,1.86-2.05s1.86.89,1.86,2.05ZM79.86,9.55c0-.95-.28-1.28-.77-1.28s-.77.34-.77,1.28.25,1.29.77,1.29.77-.35.77-1.29Z"/>
          <path class="cls-1" d="M86.07,7.88c-.06-.23-.1-.43-.1-.73v-1.19h1.05v5.57h-.86l-.12-.44c-.16.24-.54.52-1.05.52-.9,0-1.61-.65-1.61-2.06,0-1.31.74-2.06,1.7-2.06.43,0,.77.15.98.39ZM85.97,8.48c-.16-.1-.41-.19-.72-.19-.5,0-.82.34-.82,1.26s.3,1.3.8,1.3c.27,0,.53-.13.73-.34v-2.03Z"/>
          <path class="cls-1" d="M88.88,9.84c0,.63.36.98,1.02.98.4,0,.82-.15,1.16-.33l.2.74c-.33.18-.87.39-1.49.39-1.22,0-1.95-.76-1.95-2.07,0-1.22.59-2.05,1.86-2.05,1.19,0,1.66.89,1.66,1.88v.46h-2.46ZM89.62,8.27c-.52,0-.74.48-.74.94h1.45c0-.51-.15-.94-.7-.94Z"/>
          <path class="cls-1" d="M45.61,18.71v-4.52h1.04v4.46c0,.33.2.38.64.38v.74s-.31.06-.58.06c-.81,0-1.1-.43-1.1-1.13Z"/>
          <path class="cls-1" d="M50.41,19.76l-.15-.47c-.2.27-.6.55-1.15.55-.79,0-1.32-.51-1.32-1.27s.54-1.17,1.49-1.17h.83v-.2c0-.51-.29-.67-.69-.67-.47,0-.86.12-1.19.27l-.27-.75c.4-.17.94-.32,1.56-.32,1.12,0,1.61.52,1.61,1.53v2.51h-.72ZM50.11,18.03h-.65c-.44,0-.64.21-.64.51,0,.36.19.58.59.58.25,0,.51-.11.7-.27v-.82Z"/>
          <path class="cls-1" d="M52.96,16.85c0,.61,1.71.43,1.71,1.72,0,.72-.53,1.28-1.56,1.28-.48,0-.92-.14-1.19-.29l.22-.73c.19.13.57.27.94.27s.58-.19.58-.44c0-.71-1.69-.48-1.69-1.82,0-.58.44-1.11,1.51-1.11.41,0,.84.08,1.11.19l-.15.77c-.27-.12-.61-.2-.95-.2s-.54.14-.54.36Z"/>
          <path class="cls-1" d="M59.52,19.84c-1.53,0-2.36-1.02-2.36-2.83,0-1.7.82-2.78,2.36-2.78.74,0,1.41.16,1.86.46l-.4.86c-.28-.22-.77-.38-1.34-.38-.9,0-1.36.64-1.36,1.83,0,1.26.45,1.91,1.34,1.91.53,0,1.07-.23,1.44-.5l.34.86c-.54.37-1.15.58-1.87.58Z"/>
          <path class="cls-1" d="M64.75,19.76l-.16-.48c-.19.24-.61.57-1.24.57-.98,0-1.44-.55-1.44-1.64v-2.4h1.05v2.41c0,.61.22.82.69.82.27,0,.52-.1.71-.23v-3h1.07v3.96h-.69Z"/>
          <path class="cls-1" d="M66.33,18.71v-4.52h1.04v4.46c0,.33.2.38.64.38v.74s-.31.06-.58.06c-.81,0-1.1-.43-1.1-1.13Z"/>
          <path class="cls-1" d="M70.16,19.84c-.7,0-1.16-.33-1.16-1.32v-1.96h-.59v-.75h.59v-.69l1.04-.34v1.03h1.06v.75h-1.06v1.94c0,.27.14.45.42.45.22,0,.44-.06.61-.15l.16.77c-.23.14-.65.27-1.07.27Z"/>
          <path class="cls-1" d="M74.66,19.76l-.16-.48c-.19.24-.61.57-1.24.57-.98,0-1.44-.55-1.44-1.64v-2.4h1.05v2.41c0,.61.22.82.69.82.27,0,.52-.1.71-.23v-3h1.07v3.96h-.69Z"/>
          <path class="cls-1" d="M78.48,16.68c-.13-.04-.31-.06-.49-.06-.28,0-.53.12-.71.27v2.87h-1.05v-3.96h.73l.11.53h.02c.12-.28.48-.61.94-.61.21,0,.37.03.46.06l-.02.9Z"/>
          <path class="cls-1" d="M81.47,19.76l-.15-.47c-.2.27-.6.55-1.15.55-.79,0-1.32-.51-1.32-1.27s.54-1.17,1.49-1.17h.83v-.2c0-.51-.29-.67-.69-.67-.47,0-.86.12-1.19.27l-.27-.75c.4-.17.94-.32,1.56-.32,1.12,0,1.61.52,1.61,1.53v2.51h-.72ZM81.18,18.03h-.65c-.44,0-.64.21-.64.51,0,.36.19.58.59.58.25,0,.51-.11.7-.27v-.82Z"/>
          <path class="cls-1" d="M84.02,16.85c0,.61,1.71.43,1.71,1.72,0,.72-.53,1.28-1.56,1.28-.48,0-.92-.14-1.19-.29l.22-.73c.19.13.57.27.94.27s.58-.19.58-.44c0-.71-1.69-.48-1.69-1.82,0-.58.44-1.11,1.51-1.11.41,0,.84.08,1.11.19l-.15.77c-.27-.12-.61-.2-.95-.2s-.54.14-.54.36Z"/>
          <path class="cls-1" d="M86.47,18.62h1.07v1.2c0,.68-.39.96-1.07,1.03v-.55c.15-.03.25-.17.25-.55l-.25-.12v-1.02Z"/>
          <path class="cls-1" d="M45.61,26.94v-4.52h1.04v4.46c0,.33.2.38.64.38v.74s-.31.06-.58.06c-.81,0-1.1-.43-1.1-1.13Z"/>
          <path class="cls-1" d="M50.41,27.99l-.15-.47c-.2.27-.6.55-1.15.55-.79,0-1.32-.51-1.32-1.27s.54-1.17,1.49-1.17h.83v-.2c0-.51-.29-.67-.69-.67-.47,0-.86.12-1.19.27l-.27-.75c.4-.17.94-.32,1.56-.32,1.12,0,1.61.52,1.61,1.53v2.51h-.72ZM50.11,26.26h-.65c-.44,0-.64.21-.64.51,0,.36.19.58.59.58.25,0,.51-.11.7-.27v-.82Z"/>
          <path class="cls-1" d="M52.96,25.07c0,.61,1.71.43,1.71,1.72,0,.72-.53,1.28-1.56,1.28-.48,0-.92-.14-1.19-.29l.22-.73c.19.13.57.27.94.27s.58-.19.58-.44c0-.71-1.69-.48-1.69-1.82,0-.58.44-1.11,1.51-1.11.41,0,.84.08,1.11.19l-.15.77c-.27-.12-.61-.2-.95-.2s-.54.14-.54.36Z"/>
          <path class="cls-1" d="M57.94,27.99h-1.03l1.48-5.45h1.76l1.43,5.45h-1.19l-.28-1.23h-1.87l-.29,1.23ZM59.03,23.47l-.6,2.44h1.49l-.56-2.44h-.33Z"/>
          <path class="cls-1" d="M64.4,24.91c-.13-.04-.31-.06-.49-.06-.28,0-.53.12-.71.27v2.87h-1.05v-3.96h.73l.11.53h.02c.12-.28.48-.61.94-.61.21,0,.37.03.46.06l-.02.9Z"/>
          <path class="cls-1" d="M66.5,28.07c-.7,0-1.16-.33-1.16-1.32v-1.96h-.59v-.75h.59v-.69l1.04-.34v1.03h1.06v.75h-1.06v1.94c0,.27.14.45.42.45.22,0,.44-.06.61-.15l.16.77c-.23.14-.65.27-1.07.27Z"/>
          <path class="cls-1" d="M68.95,26.29c0,.63.36.98,1.02.98.4,0,.82-.15,1.16-.33l.2.74c-.33.18-.87.39-1.49.39-1.22,0-1.95-.76-1.95-2.07,0-1.22.59-2.05,1.86-2.05,1.19,0,1.66.89,1.66,1.88v.46h-2.46ZM69.69,24.73c-.52,0-.74.48-.74.94h1.45c0-.51-.15-.94-.7-.94Z"/>
          <path class="cls-1" d="M73.12,25.07c0,.61,1.71.43,1.71,1.72,0,.72-.53,1.28-1.56,1.28-.48,0-.92-.14-1.19-.29l.22-.73c.19.13.57.27.94.27s.58-.19.58-.44c0-.71-1.69-.48-1.69-1.82,0-.58.44-1.11,1.51-1.11.41,0,.84.08,1.11.19l-.15.77c-.27-.12-.61-.2-.95-.2s-.54.14-.54.36Z"/>
          <path class="cls-1" d="M78.95,27.9l-.73.13-1.18-4h1.19l.84,3.32h.02l.85-3.32h1.05l-1.22,4.05c-.34,1.14-.91,1.56-1.73,1.56-.44,0-.94-.25-1.11-.4l.33-.72h.1s.36.28.73.28c.42,0,.69-.29.84-.8l.03-.11Z"/>
          <path class="cls-1" d="M84.22,26.29c0,.63.36.98,1.02.98.4,0,.82-.15,1.16-.33l.2.74c-.33.18-.87.39-1.49.39-1.22,0-1.95-.76-1.95-2.07,0-1.22.59-2.05,1.86-2.05,1.19,0,1.66.89,1.66,1.88v.46h-2.46ZM84.96,24.73c-.52,0-.74.48-.74.94h1.45c0-.51-.15-.94-.7-.94Z"/>
          <path class="cls-1" d="M87.49,26.94v-4.52h1.04v4.46c0,.33.2.38.64.38v.74s-.31.06-.58.06c-.81,0-1.1-.43-1.1-1.13Z"/>
          <path class="cls-1" d="M47.28,34.32h-.6v1.9h-1.06v-5.45h1.65c1.11,0,2.07.53,2.07,1.7,0,1.05-.79,1.85-2.07,1.85ZM47.26,31.66h-.57v1.82h.57c.62,0,.98-.38.98-.98,0-.56-.37-.85-.98-.85Z"/>
          <path class="cls-1" d="M52.22,36.22l-.15-.47c-.2.27-.6.55-1.15.55-.79,0-1.32-.51-1.32-1.27s.54-1.17,1.49-1.17h.83v-.2c0-.51-.29-.67-.69-.67-.47,0-.86.12-1.19.27l-.27-.75c.4-.17.94-.32,1.56-.32,1.12,0,1.61.52,1.61,1.53v2.51h-.72ZM51.92,34.49h-.65c-.44,0-.64.21-.64.51,0,.36.19.58.59.58.25,0,.51-.11.7-.27v-.82Z"/>
          <path class="cls-1" d="M55.32,36.3c-.7,0-1.16-.33-1.16-1.32v-1.96h-.59v-.75h.59v-.69l1.04-.34v1.03h1.06v.75h-1.06v1.94c0,.27.14.45.42.45.22,0,.44-.06.61-.15l.16.77c-.23.14-.65.27-1.07.27Z"/>
          <path class="cls-1" d="M59.31,33.14c-.13-.04-.31-.06-.49-.06-.28,0-.53.12-.71.27v2.87h-1.05v-3.96h.73l.11.53h.02c.12-.28.48-.61.94-.61.21,0,.37.03.46.06l-.02.9Z"/>
          <path class="cls-1" d="M60.27,36.22v-3.2l-.46-.1v-.66h1.51v3.96h-1.05ZM60.24,30.65h1.07v.96h-1.07v-.96Z"/>
          <path class="cls-1" d="M65.77,33.77v2.45h-1.07v-2.35c0-.6-.22-.88-.71-.88-.27,0-.48.12-.67.24v2.99h-1.06v-3.96h.71l.18.46c.23-.27.61-.54,1.17-.54.65,0,1.03.19,1.24.56.23-.28.65-.56,1.19-.56,1.13,0,1.46.59,1.46,1.59v2.45h-1.07v-2.35c0-.6-.25-.88-.74-.88-.26,0-.49.12-.67.24.03.16.04.35.04.54Z"/>
          <path class="cls-1" d="M72.63,34.23c0,1.35-.68,2.07-1.86,2.07s-1.86-.71-1.86-2.07c0-1.16.65-2.05,1.86-2.05s1.86.89,1.86,2.05ZM71.55,34.23c0-.95-.28-1.28-.77-1.28s-.77.34-.77,1.28.25,1.29.77,1.29.77-.35.77-1.29Z"/>
          <path class="cls-1" d="M75.87,36.22v-2.35c0-.6-.23-.88-.71-.88-.27,0-.51.12-.69.24v2.99h-1.06v-3.96h.73l.16.45c.23-.27.66-.53,1.25-.53,1,0,1.4.59,1.4,1.59v2.45h-1.07Z"/>
          <path class="cls-1" d="M78.13,36.22v-3.2l-.46-.1v-.66h1.51v3.96h-1.05ZM78.1,30.65h1.07v.96h-1.07v-.96Z"/>
          <path class="cls-1" d="M83.69,34.23c0,1.35-.68,2.07-1.86,2.07s-1.86-.71-1.86-2.07c0-1.16.65-2.05,1.86-2.05s1.86.89,1.86,2.05ZM82.61,34.23c0-.95-.28-1.28-.77-1.28s-.77.34-.77,1.28.25,1.29.77,1.29.77-.35.77-1.29Z"/>
        </g>
      </g>
      <g>
        <path class="cls-1" d="M107.08,56h-1.23v3.14h-.92v-8.21h2.15c1.6,0,2.94.77,2.94,2.44s-1.25,2.63-2.94,2.63ZM107.02,51.72h-1.17v3.51h1.17c1.25,0,2.01-.6,2.01-1.84,0-1.16-.83-1.68-2.01-1.68Z"/>
        <path class="cls-1" d="M112.23,55.82v3.32h-.92v-8.21h2.2c1.59,0,2.88.67,2.88,2.35,0,1.18-.66,1.93-1.65,2.33l1.86,3.53h-1.12l-1.65-3.34c-.11.01-.34.02-.46.02h-1.13ZM113.37,51.69h-1.14v3.36h1.14c1.24,0,2.02-.57,2.02-1.74s-.77-1.62-2.02-1.62Z"/>
        <path class="cls-1" d="M120.65,59.26c-2.37,0-3.21-1.98-3.21-4.29,0-2.18.8-4.16,3.21-4.16s3.24,1.96,3.24,4.16-.86,4.29-3.24,4.29ZM120.65,51.6c-1.73,0-2.24,1.71-2.24,3.36,0,1.78.43,3.51,2.24,3.51s2.25-1.69,2.25-3.51c0-1.67-.5-3.36-2.25-3.36Z"/>
        <path class="cls-1" d="M127.57,55.94v3.2h-.95v-3.21l-2.27-5h1.14l1.71,3.99h.05l1.9-3.99h1.01l-2.59,5.01Z"/>
        <path class="cls-1" d="M131.24,59.14v-8.21h4.54v.82h-3.6v2.82h2.86l-.12.83h-2.74v2.97h3.6v.78h-4.54Z"/>
        <path class="cls-1" d="M140.16,59.26c-2.24,0-3.36-1.7-3.36-4.27s1.29-4.18,3.38-4.18c1,0,1.93.24,2.53.67l-.37.75c-.47-.37-1.31-.6-2.12-.6-1.68,0-2.46,1.34-2.46,3.32,0,2.12.81,3.48,2.43,3.48.9,0,1.68-.34,2.26-.78l.29.75c-.69.49-1.54.85-2.6.85Z"/>
        <path class="cls-1" d="M146.24,51.75v7.39h-.97v-7.39h-2.06v-.82h5.27v.82h-2.24Z"/>
        <path class="cls-1" d="M151.99,59.26c-2.37,0-3.21-1.98-3.21-4.29,0-2.18.8-4.16,3.21-4.16s3.24,1.96,3.24,4.16-.86,4.29-3.24,4.29ZM151.99,51.6c-1.73,0-2.24,1.71-2.24,3.36,0,1.78.43,3.51,2.24,3.51s2.25-1.69,2.25-3.51c0-1.67-.5-3.36-2.25-3.36Z"/>
        <path class="cls-1" d="M160.61,51.75v3.05h2.86l-.12.83h-2.74v3.51h-.94v-8.21h4.54v.82h-3.6Z"/>
        <path class="cls-1" d="M165.9,59.14v-8.21h.94v8.21h-.94Z"/>
        <path class="cls-1" d="M172.96,59.14l-3.1-7.28h-.05l.02,7.28h-.89v-8.21h1.56l3.14,7.35h.06l-.04-7.35h.92v8.21h-1.63Z"/>
        <path class="cls-1" d="M176.7,59.14h-.91l2.25-8.21h2.01l2.08,8.21h-1.02l-.5-2.09h-3.37l-.54,2.09ZM178.65,51.74l-1.22,4.51h2.99l-1.08-4.51h-.69Z"/>
        <path class="cls-1" d="M187.34,59.14l-3.1-7.28h-.05l.02,7.28h-.89v-8.21h1.56l3.14,7.35h.06l-.04-7.35h.92v8.21h-1.63Z"/>
        <path class="cls-1" d="M193.94,59.26c-2.24,0-3.36-1.7-3.36-4.27s1.29-4.18,3.38-4.18c1,0,1.93.24,2.53.67l-.37.75c-.47-.37-1.31-.6-2.12-.6-1.68,0-2.46,1.34-2.46,3.32,0,2.12.81,3.48,2.43,3.48.9,0,1.68-.34,2.26-.78l.29.75c-.69.49-1.54.85-2.6.85Z"/>
        <path class="cls-1" d="M198.17,59.14v-8.21h.94v8.21h-.94Z"/>
        <path class="cls-1" d="M201.52,59.14h-.91l2.25-8.21h2.01l2.08,8.21h-1.02l-.5-2.09h-3.37l-.54,2.09ZM203.47,51.74l-1.22,4.51h2.99l-1.08-4.51h-.69Z"/>
        <path class="cls-1" d="M210.76,59.26c-1.09,0-1.99-.22-2.65-.41v-7.92h2.31c2.29,0,3.66.99,3.66,4.03,0,2.74-1.18,4.31-3.32,4.31ZM210.36,51.69h-1.31v6.54c.35.11,1.02.24,1.75.24,1.45,0,2.3-.97,2.3-3.53,0-2.35-.81-3.26-2.74-3.26Z"/>
        <path class="cls-1" d="M218.78,59.26c-2.37,0-3.21-1.98-3.21-4.29,0-2.18.8-4.16,3.21-4.16s3.24,1.96,3.24,4.16-.86,4.29-3.24,4.29ZM218.78,51.6c-1.73,0-2.24,1.71-2.24,3.36,0,1.78.43,3.51,2.24,3.51s2.25-1.69,2.25-3.51c0-1.67-.5-3.36-2.25-3.36Z"/>
        <path class="cls-1" d="M107.08,70.59h-1.23v3.14h-.92v-8.21h2.15c1.6,0,2.94.77,2.94,2.44s-1.25,2.63-2.94,2.63ZM107.02,66.31h-1.17v3.51h1.17c1.25,0,2.01-.6,2.01-1.84,0-1.16-.83-1.68-2.01-1.68Z"/>
        <path class="cls-1" d="M114.32,73.85c-2.37,0-3.21-1.98-3.21-4.29,0-2.18.8-4.16,3.21-4.16s3.24,1.96,3.24,4.16-.86,4.29-3.24,4.29ZM114.32,66.19c-1.73,0-2.24,1.71-2.24,3.36,0,1.78.43,3.51,2.24,3.51s2.25-1.69,2.25-3.51c0-1.67-.5-3.36-2.25-3.36Z"/>
        <path class="cls-1" d="M120.09,70.41v3.32h-.92v-8.21h2.2c1.59,0,2.88.67,2.88,2.35,0,1.18-.66,1.93-1.65,2.33l1.86,3.53h-1.12l-1.65-3.34c-.11.01-.34.02-.46.02h-1.13ZM121.24,66.27h-1.14v3.36h1.14c1.24,0,2.02-.57,2.02-1.74s-.77-1.62-2.02-1.62Z"/>
        <path class="cls-1" d="M128.58,73.73v-8.21h4.54v.81h-3.6v2.82h2.86l-.12.83h-2.74v2.97h3.6v.78h-4.54Z"/>
        <path class="cls-1" d="M134.78,73.73v-8.21h.94v7.43h3.6v.78h-4.54Z"/>
        <path class="cls-1" d="M144.22,66.33v3.05h2.86l-.12.83h-2.74v3.51h-.94v-8.21h4.54v.81h-3.6Z"/>
        <path class="cls-1" d="M151.61,73.85c-2.37,0-3.21-1.98-3.21-4.29,0-2.18.8-4.16,3.21-4.16s3.24,1.96,3.24,4.16-.86,4.29-3.24,4.29ZM151.61,66.19c-1.73,0-2.24,1.71-2.24,3.36,0,1.78.43,3.51,2.24,3.51s2.25-1.69,2.25-3.51c0-1.67-.5-3.36-2.25-3.36Z"/>
        <path class="cls-1" d="M160.48,73.73l-3.1-7.28h-.05l.02,7.28h-.89v-8.21h1.56l3.14,7.35h.06l-.04-7.35h.92v8.21h-1.63Z"/>
        <path class="cls-1" d="M166.53,73.85c-1.09,0-1.99-.22-2.65-.41v-7.92h2.31c2.29,0,3.66.99,3.66,4.03,0,2.74-1.18,4.31-3.32,4.31ZM166.13,66.27h-1.31v6.54c.35.11,1.02.24,1.75.24,1.45,0,2.3-.97,2.3-3.53,0-2.35-.81-3.26-2.74-3.26Z"/>
        <path class="cls-1" d="M171.47,73.73h-.91l2.25-8.21h2.01l2.08,8.21h-1.02l-.5-2.09h-3.37l-.54,2.09ZM173.42,66.32l-1.22,4.51h2.99l-1.08-4.51h-.69Z"/>
        <path class="cls-1" d="M179.02,70.41v3.32h-.92v-8.21h2.2c1.59,0,2.88.67,2.88,2.35,0,1.18-.66,1.93-1.65,2.33l1.86,3.53h-1.12l-1.65-3.34c-.11.01-.34.02-.46.02h-1.13ZM180.17,66.27h-1.14v3.36h1.14c1.24,0,2.02-.57,2.02-1.74s-.77-1.62-2.02-1.62Z"/>
        <path class="cls-1" d="M186.82,66.33v7.39h-.97v-7.39h-2.06v-.81h5.27v.81h-2.24Z"/>
        <path class="cls-1" d="M194.1,70.41v3.32h-.92v-8.21h2.2c1.59,0,2.88.67,2.88,2.35,0,1.18-.66,1.93-1.65,2.33l1.86,3.53h-1.12l-1.65-3.34c-.11.01-.34.02-.46.02h-1.13ZM195.24,66.27h-1.14v3.36h1.14c1.24,0,2.02-.57,2.02-1.74s-.77-1.62-2.02-1.62Z"/>
        <path class="cls-1" d="M199.75,73.73v-8.21h4.54v.81h-3.6v2.82h2.86l-.12.83h-2.74v2.97h3.6v.78h-4.54Z"/>
        <path class="cls-1" d="M211.48,73.22c-1.11.5-1.84.63-2.69.63-2.2,0-3.48-1.73-3.48-4.32,0-2.36,1.25-4.13,3.59-4.13,1.02,0,1.79.23,2.38.6l-.4.73c-.45-.28-1.18-.5-1.98-.5-1.73,0-2.61,1.45-2.61,3.28,0,2.13.86,3.54,2.57,3.54.64,0,1.17-.09,1.69-.29v-2.26h-1.36l-.04-.74h2.33v3.47Z"/>
        <path class="cls-1" d="M213.45,73.73v-8.21h.94v8.21h-.94Z"/>
        <path class="cls-1" d="M219.51,73.85c-2.37,0-3.21-1.98-3.21-4.29,0-2.18.8-4.16,3.21-4.16s3.24,1.96,3.24,4.16-.86,4.29-3.24,4.29ZM219.51,66.19c-1.73,0-2.24,1.71-2.24,3.36,0,1.78.43,3.51,2.24,3.51s2.25-1.69,2.25-3.51c0-1.67-.5-3.36-2.25-3.36Z"/>
        <path class="cls-1" d="M228.38,73.73l-3.1-7.28h-.05l.02,7.28h-.89v-8.21h1.56l3.14,7.35h.06l-.04-7.35h.92v8.21h-1.63Z"/>
        <path class="cls-1" d="M232.12,73.73h-.91l2.25-8.21h2.01l2.08,8.21h-1.02l-.5-2.09h-3.37l-.54,2.09ZM234.06,66.32l-1.22,4.51h2.99l-1.08-4.51h-.69Z"/>
        <path class="cls-1" d="M238.89,73.73v-8.21h.94v7.43h3.6v.78h-4.54Z"/>
        <path class="cls-1" d="M244.37,72.37h.91v1.39c0,1.05-.29,1.34-.91,1.43v-.35c.23-.08.29-.33.29-1.11l-.29-.06v-1.3Z"/>
        <path class="cls-1" d="M108.1,88.44c-2.24,0-3.36-1.7-3.36-4.27s1.29-4.18,3.38-4.18c1,0,1.93.24,2.53.67l-.37.75c-.47-.37-1.31-.6-2.12-.6-1.68,0-2.46,1.34-2.46,3.32,0,2.12.81,3.48,2.43,3.48.9,0,1.68-.34,2.26-.78l.29.75c-.69.49-1.54.85-2.6.85Z"/>
        <path class="cls-1" d="M114.8,88.44c-2.37,0-3.21-1.98-3.21-4.29,0-2.18.8-4.16,3.21-4.16s3.24,1.96,3.24,4.16-.86,4.29-3.24,4.29ZM114.8,80.78c-1.73,0-2.24,1.71-2.24,3.36,0,1.78.43,3.51,2.24,3.51s2.25-1.69,2.25-3.51c0-1.67-.5-3.36-2.25-3.36Z"/>
        <path class="cls-1" d="M123.66,88.32l-3.1-7.28h-.05l.02,7.28h-.89v-8.21h1.56l3.14,7.35h.06l-.04-7.35h.92v8.21h-1.63Z"/>
        <path class="cls-1" d="M130.28,88.32h-1.51l-2.38-8.21h1.03l2.09,7.38h.07l2.12-7.38h1l-2.42,8.21Z"/>
        <path class="cls-1" d="M136.58,88.44c-2.37,0-3.21-1.98-3.21-4.29,0-2.18.8-4.16,3.21-4.16s3.24,1.96,3.24,4.16-.86,4.29-3.24,4.29ZM136.58,80.78c-1.73,0-2.24,1.71-2.24,3.36,0,1.78.43,3.51,2.24,3.51s2.25-1.69,2.25-3.51c0-1.67-.5-3.36-2.25-3.36Z"/>
        <path class="cls-1" d="M144.59,88.44c-2.24,0-3.36-1.7-3.36-4.27s1.29-4.18,3.38-4.18c1,0,1.93.24,2.53.67l-.37.75c-.47-.37-1.31-.6-2.12-.6-1.68,0-2.46,1.34-2.46,3.32,0,2.12.81,3.48,2.43,3.48.9,0,1.68-.34,2.26-.78l.29.75c-.69.49-1.54.85-2.6.85Z"/>
        <path class="cls-1" d="M148.82,88.32h-.91l2.25-8.21h2.01l2.08,8.21h-1.02l-.5-2.09h-3.37l-.54,2.09ZM150.76,80.91l-1.22,4.51h2.99l-1.08-4.51h-.69Z"/>
        <path class="cls-1" d="M157.04,80.92v7.39h-.97v-7.39h-2.06v-.82h5.27v.82h-2.24Z"/>
        <path class="cls-1" d="M162.78,88.44c-2.37,0-3.21-1.98-3.21-4.29,0-2.18.8-4.16,3.21-4.16s3.24,1.96,3.24,4.16-.86,4.29-3.24,4.29ZM162.78,80.78c-1.73,0-2.24,1.71-2.24,3.36,0,1.78.43,3.51,2.24,3.51s2.25-1.69,2.25-3.51c0-1.67-.5-3.36-2.25-3.36Z"/>
        <path class="cls-1" d="M168.56,85v3.32h-.92v-8.21h2.2c1.59,0,2.88.67,2.88,2.35,0,1.18-.66,1.93-1.65,2.33l1.86,3.53h-1.12l-1.65-3.34c-.11.01-.34.02-.46.02h-1.13ZM169.7,80.86h-1.14v3.36h1.14c1.24,0,2.02-.57,2.02-1.74s-.77-1.62-2.02-1.62Z"/>
        <path class="cls-1" d="M174.51,88.32v-8.21h.94v8.21h-.94Z"/>
        <path class="cls-1" d="M177.87,88.32h-.91l2.25-8.21h2.01l2.08,8.21h-1.02l-.5-2.09h-3.37l-.54,2.09ZM179.81,80.91l-1.22,4.51h2.99l-1.08-4.51h-.69Z"/>
        <path class="cls-1" d="M187.53,81.13l-.29-.71c.61-.28,1.36-.5,2.31-.5,1.35,0,2.67.72,2.67,2.35,0,1.31-.73,2.43-3.9,5.3,0,0,.62-.05,1.03-.05h2.93v.79h-5v-.74c3.39-3.04,3.98-4.2,3.98-5.21,0-1.23-.9-1.67-1.86-1.67-.72,0-1.31.17-1.87.43Z"/>
        <path class="cls-1" d="M193.77,84.16c0-2.47.71-4.23,2.65-4.23,2.07,0,2.71,1.84,2.71,4.23s-.72,4.28-2.71,4.28-2.65-1.75-2.65-4.28ZM198.18,84.16c0-2.04-.44-3.45-1.76-3.45s-1.7,1.41-1.7,3.45.37,3.5,1.7,3.5,1.76-1.46,1.76-3.5Z"/>
        <path class="cls-1" d="M200.9,81.13l-.29-.71c.61-.28,1.36-.5,2.31-.5,1.35,0,2.67.72,2.67,2.35,0,1.31-.73,2.43-3.9,5.3,0,0,.62-.05,1.03-.05h2.93v.79h-5v-.74c3.39-3.04,3.98-4.2,3.98-5.21,0-1.23-.9-1.67-1.86-1.67-.72,0-1.31.17-1.87.43Z"/>
        <path class="cls-1" d="M209.52,88.44c-.99,0-1.73-.3-2.24-.57l.24-.75c.4.22,1.2.55,1.95.55,1.14,0,1.9-.83,1.9-2.14s-.68-1.84-1.75-1.84c-.61,0-1.2.32-1.47.6l-.74-.26v-3.98h4.29l-.09.79h-3.29v2.12c0,.27-.07.62-.07.62.32-.3.86-.68,1.71-.68,1.25,0,2.38.85,2.38,2.59s-1.24,2.96-2.82,2.96Z"/>
      </g>
    </g>
  </g>
</svg>