<?xml version="1.0" encoding="UTF-8"?><svg id="Capa_2" xmlns="http://www.w3.org/2000/svg" viewBox="0 0 338.51 146.83"><defs><style>.cls-1{fill:#2764ad;}.cls-2{letter-spacing:0em;}.cls-3{letter-spacing:0em;}.cls-4{fill:#f50a86;}.cls-5{font-family:BasicSans-SemiBold, 'Basic Sans';font-size:46.9px;font-weight:600;}.cls-5,.cls-6{fill:#fff;}.cls-6{font-family:BasicSans-Light, 'Basic Sans';font-size:31.27px;font-weight:300;}.cls-7{letter-spacing:-.02em;}.cls-8{letter-spacing:-.01em;}.cls-9{letter-spacing:-.04em;}.cls-10{letter-spacing:-.03em;}.cls-11{letter-spacing:-.01em;}.cls-12{letter-spacing:-.01em;}.cls-13{letter-spacing:0em;}.cls-14{letter-spacing:0em;}</style></defs><g id="Capa_10"><text class="cls-5" transform="translate(137.55 61.99)"><tspan class="cls-12" x="0" y="0">B</tspan><tspan class="cls-3" x="28.33" y="0">A</tspan><tspan class="cls-13" x="57.55" y="0">R</tspan><tspan x="86.16" y="0">CO </tspan><tspan x="0" y="46.9">DE </tspan><tspan class="cls-9" x="67.17" y="46.9">P</tspan><tspan x="93.53" y="46.9">APE</tspan><tspan class="cls-10" x="176.69" y="46.9">L</tspan></text><text class="cls-6" transform="translate(137.44 139.45)"><tspan class="cls-7" x="0" y="0">r</tspan><tspan class="cls-8" x="9.6" y="0">e</tspan><tspan x="25.49" y="0">vi</tspan><tspan class="cls-14" x="48.12" y="0">s</tspan><tspan class="cls-2" x="62.29" y="0">ta cultu</tspan><tspan class="cls-11" x="167.79" y="0">r</tspan><tspan x="177.77" y="0">al</tspan></text><polygon class="cls-1" points="46.93 113.5 101.14 114.07 124.34 80.5 80.03 1.15 73.4 0 46.93 113.5"/><polygon class="cls-4" points="0 112.15 0 105.09 42.68 118.53 126.36 125.59 119.3 141.38 39.99 138.36 0 112.15"/></g></svg>