<?xml version="1.0" encoding="UTF-8"?>
<svg id="Capa_2" data-name="Capa 2" xmlns="http://www.w3.org/2000/svg" viewBox="0 0 341.13 142.67">
  <defs>
    <style>
      .cls-1 {
        fill: #e72286;
      }

      .cls-2 {
        fill: #1e1e1c;
      }
    </style>
  </defs>
  <g id="Capa_1-2" data-name="Capa 1">
    <g>
      <g>
        <path class="cls-2" d="M166.06,54.08c0,5.4-3.83,8.47-10.7,8.47h-13.06v-31.24h11.79c6.63,0,10.6,3.03,10.6,8.42,0,4.64-3.22,6.11-5.02,6.39v.14c2.13.33,6.39,2.41,6.39,7.81ZM152.95,35.95h-4.73v8.52h5.16c3.5,0,5.35-1.75,5.35-4.21,0-2.79-1.85-4.31-5.78-4.31ZM160.05,53.42c0-3.22-2.6-4.78-6.11-4.78h-5.73v9.28h6.15c3.31,0,5.68-1.42,5.68-4.5Z"/>
        <path class="cls-2" d="M188.12,55.55h-11.93l-2.37,7h-6.15l11.31-31.24h6.34l11.22,31.24h-6.06l-2.37-7ZM186.56,50.95l-3.41-9.94c-.33-.95-.66-2.27-.95-3.46h-.14c-.24,1.18-.62,2.51-.95,3.5l-3.36,9.89h8.8Z"/>
        <path class="cls-2" d="M225.37,62.55s-1.23.33-3.17.33c-9.28,0-6.67-11.45-14.06-11.45h-1.8v11.12h-5.96v-31.24h10.27c7.86,0,12.17,3.12,12.17,10.27,0,4.35-2.46,7.34-6.53,8.8,3.6,1.8,3.64,7.71,7.76,7.71.52,0,.95-.09.95-.09l.38,4.54ZM209.84,47.12c4.12,0,7.05-1.94,7.05-5.49s-2.37-5.54-6.58-5.54h-3.98v11.03h3.5Z"/>
        <path class="cls-2" d="M254.71,42.29l-5.58.85c0-2.93-1.85-6.96-6.82-6.96s-8.57,3.98-8.57,10.74c0,7.67,4.54,10.75,9.42,10.75,4.02,0,6.82-2.6,8.24-4.5l3.55,3.64c-1.28,1.8-4.97,6.06-11.93,6.06-9.13,0-15.34-6.01-15.34-15.95s6.06-15.95,14.53-15.95c9.18,0,12.45,6.58,12.5,11.31Z"/>
        <path class="cls-2" d="M288.27,46.93c0,9.75-6.2,15.9-15.05,15.9s-15-6.15-15-15.9,6.25-15.95,15-15.95,15.05,6.15,15.05,15.95ZM282.26,46.93c0-6.72-3.79-10.74-9.04-10.74s-8.99,4.02-8.99,10.74,3.79,10.75,8.99,10.75,9.04-4.07,9.04-10.75Z"/>
        <path class="cls-2" d="M168.57,94.26c0,10.41-5.44,15.62-14.29,15.62h-11.98v-31.24h10.51c10.13,0,15.76,6.06,15.76,15.62ZM162.51,94.26c0-7.29-3.69-10.84-10.32-10.84h-3.93v21.68h5.44c5.25,0,8.8-3.17,8.8-10.84Z"/>
        <path class="cls-2" d="M180.03,83.56v7.95h12.54v4.73h-12.54v8.71h14.34v4.92h-20.31v-31.24h20.31v4.92h-14.34Z"/>
        <path class="cls-2" d="M233.74,89.53c0,7.2-4.88,10.93-12.07,10.93h-5.63v9.42h-5.96v-31.24h10.84c8.05,0,12.83,3.74,12.83,10.89ZM227.73,89.53c0-3.79-2.56-6.11-7.38-6.11h-4.31v12.26h4.54c4.54,0,7.15-2.18,7.15-6.15Z"/>
        <path class="cls-2" d="M253.91,102.88h-11.93l-2.37,7h-6.15l11.31-31.24h6.34l11.22,31.24h-6.06l-2.37-7ZM252.34,98.28l-3.41-9.94c-.33-.95-.66-2.27-.95-3.46h-.14c-.24,1.18-.62,2.51-.95,3.5l-3.36,9.89h8.8Z"/>
        <path class="cls-2" d="M289.83,89.53c0,7.2-4.88,10.93-12.07,10.93h-5.63v9.42h-5.96v-31.24h10.84c8.05,0,12.83,3.74,12.83,10.89ZM283.82,89.53c0-3.79-2.56-6.11-7.38-6.11h-4.31v12.26h4.54c4.54,0,7.15-2.18,7.15-6.15Z"/>
        <path class="cls-2" d="M300.53,83.56v7.95h12.54v4.73h-12.54v8.71h14.34v4.92h-20.31v-31.24h20.31v4.92h-14.34Z"/>
        <path class="cls-2" d="M341.13,104.96v4.92h-20.54v-31.24h5.96v26.32h14.58Z"/>
      </g>
      <g>
        <path class="cls-2" d="M148.73,126l-.47,1.89c-.22-.13-.73-.25-1.29-.25-2.21,0-3.88,2.52-3.88,5.08v7.98h-1.92v-14.77l1.36-.06c.19,1.23.28,2.81.28,3.75h.06c.57-2.02,1.93-3.85,4.2-3.85.66,0,1.29.09,1.67.22Z"/>
        <path class="cls-2" d="M163.37,132.47c0,.79-.09,1.26-.09,1.26h-11.42c.16,3.34,2.27,5.52,5.62,5.52,2.15,0,3.57-.92,4.39-1.92l1.2,1.1c-1.36,1.67-3.41,2.43-5.71,2.43-4.58,0-7.45-3-7.45-7.51s2.9-7.57,7.07-7.57,6.41,2.78,6.41,6.69ZM151.91,132.31h9.5v-.13c0-2.97-1.77-4.8-4.45-4.8s-4.7,1.96-5.05,4.92Z"/>
        <path class="cls-2" d="M179.59,125.94l-6.15,14.77h-2.18l-6.15-14.77h2.15l4.8,11.77c.19.47.25.66.35,1.07h.06c.09-.44.16-.66.32-1.07l4.86-11.77h1.96Z"/>
        <path class="cls-2" d="M183.84,122.56c-.82,0-1.48-.63-1.48-1.45s.66-1.48,1.48-1.48,1.51.63,1.51,1.48-.69,1.45-1.51,1.45ZM182.83,125.94l1.92-.06v14.83h-1.92v-14.77Z"/>
        <path class="cls-2" d="M198.17,130.17c0-1.77-1.58-2.78-3.72-2.78s-3.44,1.01-3.44,2.52c0,3.91,9.18,1.39,9.25,6.88.03,2.56-2.27,4.07-5.77,4.07-3.72,0-5.52-1.7-6.09-2.18l1.2-1.26c.41.38,2.15,1.83,4.89,1.83,2.49,0,3.85-.98,3.85-2.46,0-3.69-9.28-1.55-9.28-6.91,0-2.37,2.18-4.1,5.46-4.1s5.43,1.61,5.43,4.04c0,.5-.09.95-.09.95l-1.77.16c.03-.16.09-.44.09-.76Z"/>
        <path class="cls-2" d="M213.5,139.86s-1.45,1.04-3.72,1.04c-3.44,0-4.89-1.83-4.89-5.33v-8.05h-2.43v-1.58h2.43v-4.48l1.92-.13v4.61h6v1.58h-6v7.98c0,2.46.92,3.72,3.12,3.72,1.8,0,2.9-.92,2.9-.92l.66,1.55Z"/>
        <path class="cls-2" d="M229.19,140.71s-.57.16-1.17.16c-1.29,0-2.24-.63-2.24-2.21v-.76h-.06c-.54,1.1-2.08,2.97-5.58,2.97-3.12,0-4.86-1.55-4.86-3.91,0-3.31,3.41-4.45,9.47-4.51l.92-.03v-1.14c0-2.37-1.51-3.88-4.2-3.88-2.4,0-3.98,1.14-3.98,3.03,0,.44.09.73.16.85l-1.8.32s-.19-.54-.19-1.26c0-2.68,2.3-4.54,5.84-4.54,3.79,0,6.09,2.11,6.09,5.46v6.72c0,.85.28,1.2.98,1.2.19,0,.41-.03.54-.06l.09,1.61ZM225.65,135.72v-1.92l-.92.03c-4.95.06-7.51.88-7.51,3.06,0,1.45,1.07,2.37,3.31,2.37,3.66,0,5.11-2.59,5.11-3.53Z"/>
        <path class="cls-2" d="M252.57,130.77c0,.54-.09.95-.09.95l-1.8.13c.03-.09.06-.41.06-.79,0-2.11-1.55-3.66-4.1-3.66-3.16,0-5.3,2.37-5.3,5.96s2.08,5.9,5.55,5.9c2.49,0,3.85-1.07,4.61-1.92l1.14,1.2c-1.33,1.55-3.38,2.34-5.81,2.34-4.51,0-7.42-3.03-7.42-7.48s2.93-7.61,7.19-7.61c3.66,0,5.96,2.15,5.96,4.99Z"/>
        <path class="cls-2" d="M269.01,125.94v14.77l-1.39.06c-.19-1.23-.28-2.81-.28-3.57h-.03c-.79,1.99-2.59,3.66-5.33,3.66-3.5,0-5.58-2.34-5.58-5.84v-9.09h1.92v9.09c0,2.56,1.39,4.23,3.94,4.23,3.19,0,4.86-3.03,4.86-5.24v-8.08h1.89Z"/>
        <path class="cls-2" d="M273.99,118.43h1.89v22.28h-1.89v-22.28Z"/>
        <path class="cls-2" d="M290.36,139.86s-1.45,1.04-3.72,1.04c-3.44,0-4.89-1.83-4.89-5.33v-8.05h-2.43v-1.58h2.43v-4.48l1.92-.13v4.61h6v1.58h-6v7.98c0,2.46.92,3.72,3.12,3.72,1.8,0,2.9-.92,2.9-.92l.66,1.55Z"/>
        <path class="cls-2" d="M305.54,125.94v14.77l-1.39.06c-.19-1.23-.28-2.81-.28-3.57h-.03c-.79,1.99-2.59,3.66-5.33,3.66-3.5,0-5.58-2.34-5.58-5.84v-9.09h1.92v9.09c0,2.56,1.39,4.23,3.94,4.23,3.19,0,4.86-3.03,4.86-5.24v-8.08h1.89Z"/>
        <path class="cls-2" d="M318.04,126l-.47,1.89c-.22-.13-.73-.25-1.29-.25-2.21,0-3.88,2.52-3.88,5.08v7.98h-1.92v-14.77l1.36-.06c.19,1.23.28,2.81.28,3.75h.06c.57-2.02,1.92-3.85,4.2-3.85.66,0,1.29.09,1.67.22Z"/>
        <path class="cls-2" d="M333.5,140.71s-.57.16-1.17.16c-1.29,0-2.24-.63-2.24-2.21v-.76h-.06c-.54,1.1-2.08,2.97-5.58,2.97-3.12,0-4.86-1.55-4.86-3.91,0-3.31,3.41-4.45,9.47-4.51l.92-.03v-1.14c0-2.37-1.51-3.88-4.2-3.88-2.4,0-3.98,1.14-3.98,3.03,0,.44.09.73.16.85l-1.8.32s-.19-.54-.19-1.26c0-2.68,2.3-4.54,5.84-4.54,3.79,0,6.09,2.11,6.09,5.46v6.72c0,.85.28,1.2.98,1.2.19,0,.41-.03.54-.06l.09,1.61ZM329.96,135.72v-1.92l-.92.03c-4.95.06-7.51.88-7.51,3.06,0,1.45,1.07,2.37,3.31,2.37,3.66,0,5.11-2.59,5.11-3.53Z"/>
        <path class="cls-2" d="M337.16,118.43h1.89v22.28h-1.89v-22.28Z"/>
      </g>
      <g>
        <polygon class="cls-2" points="47.36 114.53 102.05 115.1 125.47 81.23 80.75 1.16 74.07 0 47.36 114.53"/>
        <polygon class="cls-1" points="0 113.16 0 106.04 43.07 119.61 127.5 126.73 120.38 142.67 40.35 139.61 0 113.16"/>
      </g>
    </g>
  </g>
</svg>