<?xml version="1.0" encoding="UTF-8"?>
<svg id="Capa_2" xmlns="http://www.w3.org/2000/svg" version="1.1" viewBox="0 0 338.5 146.8">
  <!-- Generator: Adobe Illustrator 29.6.1, SVG Export Plug-In . SVG Version: 2.1.1 Build 9)  -->
  <defs>
    <style>
      .st0 {
        fill: #2764ad;
      }

      .st1 {
        isolation: isolate;
      }

      .st2 {
        fill: #fff;
      }

      .st3 {
        fill: #f50a86;
      }
    </style>
  </defs>
  <g id="Capa_10">
    <g class="st1">
      <g class="st1">
        <path class="st2" d="M164.6,53.6c0,5.3-3.8,8.4-10.6,8.4h-12.9v-31h11.7c6.6,0,10.5,3,10.5,8.3s-3.2,6.1-5,6.3h0c2.1.5,6.3,2.5,6.3,7.9ZM151.6,35.6h-4.7v8.4h5.1c3.5,0,5.3-1.7,5.3-4.2s-1.8-4.3-5.7-4.3ZM158.6,52.9c0-3.2-2.6-4.7-6.1-4.7h-5.7v9.2h6.1c3.3,0,5.6-1.4,5.6-4.5Z"/>
      </g>
      <g class="st1">
        <path class="st2" d="M186.4,55h-11.8l-2.3,6.9h-6.1l11.2-31h6.3l11.1,31h-6l-2.3-6.9ZM184.9,50.5l-3.4-9.8c-.3-.9-.7-2.3-.9-3.4h-.1c-.2,1.2-.6,2.5-.9,3.5l-3.3,9.8h8.7Z"/>
      </g>
      <g class="st1">
        <path class="st2" d="M223.3,62s-1.2.3-3.1.3c-9.2,0-6.6-11.4-13.9-11.4h-1.8v11h-5.9v-31h10.2c7.8,0,12.1,3.1,12.1,10.2s-2.4,7.3-6.5,8.7c3.6,1.8,3.6,7.6,7.7,7.6s.9,0,.9,0l.4,4.5ZM208,46.7c4.1,0,7-1.9,7-5.4s-2.3-5.5-6.5-5.5h-3.9v10.9h3.5Z"/>
      </g>
      <g class="st1">
        <path class="st2" d="M252.4,41.9l-5.5.8c0-2.9-1.8-6.9-6.8-6.9s-8.5,3.9-8.5,10.6,4.5,10.6,9.3,10.6,6.8-2.6,8.2-4.5l3.5,3.6c-1.3,1.8-4.9,6-11.8,6s-15.2-6-15.2-15.8,6-15.8,14.4-15.8,12.3,6.5,12.4,11.2Z"/>
        <path class="st2" d="M285.7,46.5c0,9.7-6.1,15.8-14.9,15.8s-14.9-6.1-14.9-15.8,6.2-15.8,14.9-15.8,14.9,6.1,14.9,15.8ZM279.7,46.5c0-6.7-3.8-10.6-9-10.6s-8.9,4-8.9,10.6,3.8,10.6,8.9,10.6,9-4,9-10.6Z"/>
      </g>
      <g class="st1">
        <path class="st2" d="M167.1,93.4c0,10.3-5.4,15.5-14.2,15.5h-11.9v-31h10.4c10,0,15.6,6,15.6,15.5ZM161,93.4c0-7.2-3.7-10.7-10.2-10.7h-3.9v21.5h5.4c5.2,0,8.7-3.1,8.7-10.7Z"/>
        <path class="st2" d="M178.4,82.8v7.9h12.4v4.7h-12.4v8.6h14.2v4.9h-20.1v-31h20.1v4.9h-14.2Z"/>
      </g>
      <g class="st1">
        <path class="st2" d="M231.6,88.7c0,7.1-4.8,10.8-12,10.8h-5.6v9.3h-5.9v-31h10.7c8,0,12.7,3.7,12.7,10.8ZM225.7,88.7c0-3.8-2.5-6.1-7.3-6.1h-4.3v12.1h4.5c4.5,0,7.1-2.2,7.1-6.1Z"/>
      </g>
      <g class="st1">
        <path class="st2" d="M251.6,101.9h-11.8l-2.3,6.9h-6.1l11.2-31h6.3l11.1,31h-6l-2.3-6.9ZM250.1,97.4l-3.4-9.8c-.3-.9-.7-2.3-.9-3.4h-.1c-.2,1.2-.6,2.5-.9,3.5l-3.3,9.8h8.7Z"/>
        <path class="st2" d="M287.2,88.7c0,7.1-4.8,10.8-12,10.8h-5.6v9.3h-5.9v-31h10.7c8,0,12.7,3.7,12.7,10.8ZM281.3,88.7c0-3.8-2.5-6.1-7.3-6.1h-4.3v12.1h4.5c4.5,0,7.1-2.2,7.1-6.1Z"/>
        <path class="st2" d="M297.8,82.8v7.9h12.4v4.7h-12.4v8.6h14.2v4.9h-20.1v-31h20.1v4.9h-14.2Z"/>
      </g>
      <g class="st1">
        <path class="st2" d="M338.1,104v4.9h-20.4v-31h5.9v26.1h14.4Z"/>
      </g>
    </g>
    <g class="st1">
      <g class="st1">
        <path class="st2" d="M147.4,124.9l-.5,1.9c-.2-.1-.7-.2-1.3-.2-2.2,0-3.8,2.5-3.8,5v7.9h-1.9v-14.6h1.3c.2,1.2.3,2.7.3,3.7h0c.6-2,1.9-3.8,4.2-3.8s1.3,0,1.7.2Z"/>
      </g>
      <g class="st1">
        <path class="st2" d="M161.9,131.3c0,.8,0,1.3,0,1.3h-11.3c.2,3.3,2.3,5.5,5.6,5.5s3.5-.9,4.3-1.9l1.2,1.1c-1.3,1.7-3.4,2.4-5.7,2.4-4.5,0-7.4-3-7.4-7.4s2.9-7.5,7-7.5,6.3,2.8,6.3,6.6ZM150.5,131.1h9.4c0-3.1-1.8-4.9-4.4-4.9s-4.7,1.9-5,4.9Z"/>
      </g>
      <g class="st1">
        <path class="st2" d="M178,124.8l-6.1,14.6h-2.2l-6.1-14.6h2.1l4.8,11.7c.2.5.2.7.3,1.1h0c0-.4.2-.7.3-1.1l4.8-11.7h1.9Z"/>
        <path class="st2" d="M182.2,121.5c-.8,0-1.5-.6-1.5-1.4s.7-1.5,1.5-1.5,1.5.6,1.5,1.5-.7,1.4-1.5,1.4ZM181.2,124.8h1.9c0,0,0,14.6,0,14.6h-1.9v-14.6Z"/>
      </g>
      <g class="st1">
        <path class="st2" d="M196.4,129c0-1.8-1.6-2.8-3.7-2.8s-3.4,1-3.4,2.5c0,3.9,9.1,1.4,9.2,6.8,0,2.5-2.3,4-5.7,4s-5.5-1.7-6-2.2l1.2-1.3c.4.4,2.1,1.8,4.8,1.8s3.8-1,3.8-2.4c0-3.7-9.2-1.5-9.2-6.8s2.2-4.1,5.4-4.1,5.4,1.6,5.4,4,0,.9,0,.9l-1.8.2c0-.2,0-.4,0-.8Z"/>
      </g>
      <g class="st1">
        <path class="st2" d="M211.6,138.6s-1.4,1-3.7,1c-3.4,0-4.8-1.8-4.8-5.3v-8h-2.4v-1.6h2.4v-4.4h1.9c0-.1,0,4.4,0,4.4h5.9v1.6h-5.9v7.9c0,2.4.9,3.7,3.1,3.7s2.9-.9,2.9-.9l.7,1.5Z"/>
        <path class="st2" d="M227.1,139.5s-.6.2-1.2.2c-1.3,0-2.2-.6-2.2-2.2v-.8h0c-.5,1.1-2.1,2.9-5.5,2.9s-4.8-1.5-4.8-3.9,3.4-4.4,9.4-4.5h.9v-1.2c0-2.3-1.5-3.8-4.2-3.8s-3.9,1.1-3.9,3,0,.7.2.8l-1.8.3s-.2-.5-.2-1.2c0-2.7,2.3-4.5,5.8-4.5s6,2.1,6,5.4v6.7c0,.8.3,1.2,1,1.2s.4,0,.5,0v1.6ZM223.6,134.5v-1.9h-.9c-4.9,0-7.4.9-7.4,3.1s1.1,2.3,3.3,2.3c3.6,0,5.1-2.6,5.1-3.5Z"/>
        <path class="st2" d="M250.3,129.6c0,.5,0,.9,0,.9h-1.8s0-.3,0-.7c0-2.1-1.5-3.6-4.1-3.6s-5.3,2.3-5.3,5.9,2.1,5.8,5.5,5.8,3.8-1.1,4.6-1.9l1.1,1.2c-1.3,1.5-3.3,2.3-5.8,2.3-4.5,0-7.3-3-7.3-7.4s2.9-7.5,7.1-7.5,5.9,2.1,5.9,4.9Z"/>
        <path class="st2" d="M266.6,124.8v14.6h-1.4c-.2-1.2-.3-2.7-.3-3.5h0c-.8,2-2.6,3.6-5.3,3.6s-5.5-2.3-5.5-5.8v-9h1.9v9c0,2.5,1.4,4.2,3.9,4.2s4.8-3,4.8-5.2v-8h1.9Z"/>
        <path class="st2" d="M271.5,117.4h1.9v22.1h-1.9v-22.1Z"/>
        <path class="st2" d="M287.8,138.6s-1.4,1-3.7,1c-3.4,0-4.8-1.8-4.8-5.3v-8h-2.4v-1.6h2.4v-4.4h1.9c0-.1,0,4.4,0,4.4h5.9v1.6h-5.9v7.9c0,2.4.9,3.7,3.1,3.7s2.9-.9,2.9-.9l.7,1.5Z"/>
        <path class="st2" d="M302.8,124.8v14.6h-1.4c-.2-1.2-.3-2.7-.3-3.5h0c-.8,2-2.6,3.6-5.3,3.6s-5.5-2.3-5.5-5.8v-9h1.9v9c0,2.5,1.4,4.2,3.9,4.2s4.8-3,4.8-5.2v-8h1.9Z"/>
      </g>
      <g class="st1">
        <path class="st2" d="M315.2,124.9l-.5,1.9c-.2-.1-.7-.2-1.3-.2-2.2,0-3.8,2.5-3.8,5v7.9h-1.9v-14.6h1.3c.2,1.2.3,2.7.3,3.7h0c.6-2,1.9-3.8,4.2-3.8s1.3,0,1.7.2Z"/>
      </g>
      <g class="st1">
        <path class="st2" d="M330.5,139.5s-.6.2-1.2.2c-1.3,0-2.2-.6-2.2-2.2v-.8h0c-.5,1.1-2.1,2.9-5.5,2.9s-4.8-1.5-4.8-3.9,3.4-4.4,9.4-4.5h.9v-1.2c0-2.3-1.5-3.8-4.2-3.8s-3.9,1.1-3.9,3,0,.7.2.8l-1.8.3s-.2-.5-.2-1.2c0-2.7,2.3-4.5,5.8-4.5s6,2.1,6,5.4v6.7c0,.8.3,1.2,1,1.2s.4,0,.5,0v1.6ZM327,134.5v-1.9h-.9c-4.9,0-7.4.9-7.4,3.1s1.1,2.3,3.3,2.3c3.6,0,5.1-2.6,5.1-3.5Z"/>
        <path class="st2" d="M334.1,117.4h1.9v22.1h-1.9v-22.1Z"/>
      </g>
    </g>
    <polygon class="st0" points="46.9 113.5 101.1 114.1 124.3 80.5 80 1.1 73.4 0 46.9 113.5"/>
    <polygon class="st3" points="0 112.2 0 105.1 42.7 118.5 126.4 125.6 119.3 141.4 40 138.4 0 112.2"/>
  </g>
</svg>