<?xml version="1.0" encoding="UTF-8"?><svg id="Capa_2" xmlns="http://www.w3.org/2000/svg" viewBox="0 0 223 104.45"><defs><style>.cls-1{fill:#f50a86;}</style></defs><g id="Capa_19"><path d="M117.58,104.45c-15.06,0-30.48-2.47-46.11-7.41C29.74,83.86.67,57.29.38,57.02l-.38-.35.37-.37C40.03,16.64,80.85-2.1,121.67.61c60.83,4.03,100.66,55.23,101.06,55.74l.27.35-.31.31c-24.35,24.35-51.19,39.5-79.78,45.03-8.3,1.61-16.75,2.41-25.33,2.41ZM1.45,56.64c3.58,3.18,31.44,27.17,70.35,39.46,24.36,7.69,48.23,9.36,70.93,4.96,28.26-5.48,54.82-20.43,78.93-44.44-3.6-4.5-42.32-51.19-100.07-55.01C81.19-1.05,40.77,17.45,1.45,56.64Z"/><path d="M116.5,103.78c-28.61,0-51.89-23.28-51.89-51.89S87.89,0,116.5,0s51.89,23.28,51.89,51.89-23.28,51.89-51.89,51.89ZM116.5,1c-28.06,0-50.89,22.83-50.89,50.89s22.83,50.89,50.89,50.89,50.89-22.83,50.89-50.89S144.57,1,116.5,1Z"/><circle class="cls-1" cx="130.66" cy="52.08" r="29.49"/><circle cx="129.33" cy="52.23" r="13.55"/></g></svg>