<?xml version="1.0" encoding="UTF-8"?><svg id="Capa_2" xmlns="http://www.w3.org/2000/svg" viewBox="0 0 223 104.45"><defs><style>.cls-1{fill:#f50a86;}</style></defs><g id="Capa_19"><path d="M109.06,104.1c-2.58,0-5.15-.08-7.73-.26C40.5,99.81.66,48.62.27,48.1l-.27-.35.31-.31C24.66,23.1,51.5,7.95,80.09,2.41c22.88-4.43,46.91-2.75,71.44,5,41.72,13.18,70.8,39.75,71.09,40.02l.38.35-.37.37c-37.16,37.16-75.33,55.95-113.57,55.95ZM1.33,47.84c3.6,4.5,42.32,51.19,100.07,55.01,40.41,2.66,80.82-15.84,120.15-55.03-3.58-3.18-31.44-27.17-70.35-39.46C126.83.66,102.97-1.01,80.26,3.4,52,8.87,25.44,23.82,1.33,47.84Z"/><path d="M106.49,104.45c-28.61,0-51.89-23.28-51.89-51.89S77.88.67,106.49.67s51.89,23.28,51.89,51.89-23.28,51.89-51.89,51.89ZM106.49,1.67c-28.06,0-50.89,22.83-50.89,50.89s22.83,50.89,50.89,50.89,50.89-22.83,50.89-50.89S134.55,1.67,106.49,1.67Z"/><circle class="cls-1" cx="81.97" cy="36.64" r="13.55"/><path d="M74.8,67.43c-16.54,0-30-13.46-30-29.99s13.46-30,30-30,30,13.46,30,30-13.46,29.99-30,29.99ZM74.8,8.44c-15.99,0-29,13.01-29,29s13.01,28.99,29,28.99,29-13.01,29-28.99-13.01-29-29-29Z"/></g></svg>